<?xml version="1.0" encoding="UTF-8" standalone="no"?>
<svg
   xmlns:dc="http://purl.org/dc/elements/1.1/"
   xmlns:cc="http://creativecommons.org/ns#"
   xmlns:rdf="http://www.w3.org/1999/02/22-rdf-syntax-ns#"
   xmlns:svg="http://www.w3.org/2000/svg"
   xmlns="http://www.w3.org/2000/svg"
   viewBox="0 0 816 1056"
   height="1056"
   width="500"
   xml:space="preserve"
   id="svg2"
   version="1.1"><metadata
     id="metadata8"><rdf:RDF><cc:Work
         rdf:about=""><dc:format>image/svg+xml</dc:format><dc:type
           rdf:resource="http://purl.org/dc/dcmitype/StillImage" /></cc:Work></rdf:RDF></metadata><defs
     id="defs6"><clipPath
       id="clipPath18"
       clipPathUnits="userSpaceOnUse"><path
         id="path16"
         d="M 0,792 H 612 V 0 H 0 Z" /></clipPath><clipPath
       id="clipPath250"
       clipPathUnits="userSpaceOnUse"><path
         id="path248"
         d="m 100.897,436.333 h 87.581 v 22.6 h -87.581 z" /></clipPath><clipPath
       id="clipPath262"
       clipPathUnits="userSpaceOnUse"><path
         id="path260"
         d="M 0,792 H 612 V 0 H 0 Z" /></clipPath><clipPath
       id="clipPath274"
       clipPathUnits="userSpaceOnUse"><path
         id="path272"
         d="m 100.897,436.333 h 87.581 v 22.6 h -87.581 z" /></clipPath><clipPath
       id="clipPath286"
       clipPathUnits="userSpaceOnUse"><path
         id="path284"
         d="M 0,792 H 612 V 0 H 0 Z" /></clipPath><clipPath
       id="clipPath298"
       clipPathUnits="userSpaceOnUse"><path
         id="path296"
         d="m 100.897,436.333 h 87.581 v 22.6 h -87.581 z" /></clipPath><clipPath
       id="clipPath310"
       clipPathUnits="userSpaceOnUse"><path
         id="path308"
         d="M 0,792 H 612 V 0 H 0 Z" /></clipPath><clipPath
       id="clipPath322"
       clipPathUnits="userSpaceOnUse"><path
         id="path320"
         d="m 100.897,436.333 h 87.581 v 22.6 h -87.581 z" /></clipPath><clipPath
       id="clipPath334"
       clipPathUnits="userSpaceOnUse"><path
         id="path332"
         d="M 0,792 H 612 V 0 H 0 Z" /></clipPath><clipPath
       id="clipPath346"
       clipPathUnits="userSpaceOnUse"><path
         id="path344"
         d="m 100.897,436.333 h 87.581 v 22.6 h -87.581 z" /></clipPath><clipPath
       id="clipPath358"
       clipPathUnits="userSpaceOnUse"><path
         id="path356"
         d="M 0,792 H 612 V 0 H 0 Z" /></clipPath><clipPath
       id="clipPath370"
       clipPathUnits="userSpaceOnUse"><path
         id="path368"
         d="m 100.897,436.333 h 87.581 v 22.6 h -87.581 z" /></clipPath><clipPath
       id="clipPath382"
       clipPathUnits="userSpaceOnUse"><path
         id="path380"
         d="M 0,792 H 612 V 0 H 0 Z" /></clipPath><clipPath
       id="clipPath394"
       clipPathUnits="userSpaceOnUse"><path
         id="path392"
         d="m 100.897,436.333 h 87.581 v 22.6 h -87.581 z" /></clipPath><clipPath
       id="clipPath406"
       clipPathUnits="userSpaceOnUse"><path
         id="path404"
         d="M 0,792 H 612 V 0 H 0 Z" /></clipPath><clipPath
       id="clipPath418"
       clipPathUnits="userSpaceOnUse"><path
         id="path416"
         d="m 100.897,436.333 h 87.581 v 22.6 h -87.581 z" /></clipPath><clipPath
       id="clipPath430"
       clipPathUnits="userSpaceOnUse"><path
         id="path428"
         d="M 0,792 H 612 V 0 H 0 Z" /></clipPath><clipPath
       id="clipPath442"
       clipPathUnits="userSpaceOnUse"><path
         id="path440"
         d="m 100.897,436.333 h 87.581 v 22.6 h -87.581 z" /></clipPath><clipPath
       id="clipPath454"
       clipPathUnits="userSpaceOnUse"><path
         id="path452"
         d="M 0,792 H 612 V 0 H 0 Z" /></clipPath><clipPath
       id="clipPath466"
       clipPathUnits="userSpaceOnUse"><path
         id="path464"
         d="m 100.897,436.333 h 87.581 v 22.6 h -87.581 z" /></clipPath><clipPath
       id="clipPath478"
       clipPathUnits="userSpaceOnUse"><path
         id="path476"
         d="M 0,792 H 612 V 0 H 0 Z" /></clipPath><clipPath
       id="clipPath490"
       clipPathUnits="userSpaceOnUse"><path
         id="path488"
         d="m 100.897,436.333 h 87.581 v 22.6 h -87.581 z" /></clipPath><clipPath
       id="clipPath502"
       clipPathUnits="userSpaceOnUse"><path
         id="path500"
         d="M 0,792 H 612 V 0 H 0 Z" /></clipPath><clipPath
       id="clipPath514"
       clipPathUnits="userSpaceOnUse"><path
         id="path512"
         d="m 100.897,436.333 h 87.581 v 22.6 h -87.581 z" /></clipPath><clipPath
       id="clipPath526"
       clipPathUnits="userSpaceOnUse"><path
         id="path524"
         d="M 0,792 H 612 V 0 H 0 Z" /></clipPath><clipPath
       id="clipPath538"
       clipPathUnits="userSpaceOnUse"><path
         id="path536"
         d="m 100.897,436.333 h 87.581 v 22.6 h -87.581 z" /></clipPath><clipPath
       id="clipPath550"
       clipPathUnits="userSpaceOnUse"><path
         id="path548"
         d="M 0,792 H 612 V 0 H 0 Z" /></clipPath><clipPath
       id="clipPath562"
       clipPathUnits="userSpaceOnUse"><path
         id="path560"
         d="m 100.897,436.333 h 87.581 v 22.6 h -87.581 z" /></clipPath><clipPath
       id="clipPath574"
       clipPathUnits="userSpaceOnUse"><path
         id="path572"
         d="M 0,792 H 612 V 0 H 0 Z" /></clipPath><clipPath
       id="clipPath586"
       clipPathUnits="userSpaceOnUse"><path
         id="path584"
         d="m 100.897,436.333 h 87.581 v 22.6 h -87.581 z" /></clipPath><clipPath
       id="clipPath598"
       clipPathUnits="userSpaceOnUse"><path
         id="path596"
         d="M 0,792 H 612 V 0 H 0 Z" /></clipPath><clipPath
       id="clipPath610"
       clipPathUnits="userSpaceOnUse"><path
         id="path608"
         d="m 100.897,436.333 h 87.581 v 22.6 h -87.581 z" /></clipPath><clipPath
       id="clipPath622"
       clipPathUnits="userSpaceOnUse"><path
         id="path620"
         d="M 0,792 H 612 V 0 H 0 Z" /></clipPath><clipPath
       id="clipPath634"
       clipPathUnits="userSpaceOnUse"><path
         id="path632"
         d="m 100.897,436.333 h 87.581 v 22.6 h -87.581 z" /></clipPath><clipPath
       id="clipPath646"
       clipPathUnits="userSpaceOnUse"><path
         id="path644"
         d="M 0,792 H 612 V 0 H 0 Z" /></clipPath><clipPath
       id="clipPath658"
       clipPathUnits="userSpaceOnUse"><path
         id="path656"
         d="m 100.897,436.333 h 87.581 v 22.6 h -87.581 z" /></clipPath><clipPath
       id="clipPath670"
       clipPathUnits="userSpaceOnUse"><path
         id="path668"
         d="M 0,792 H 612 V 0 H 0 Z" /></clipPath><clipPath
       id="clipPath680"
       clipPathUnits="userSpaceOnUse"><path
         id="path678"
         d="m 100.897,436.333 h 87.581 v 22.6 h -87.581 z" /></clipPath><clipPath
       id="clipPath690"
       clipPathUnits="userSpaceOnUse"><path
         id="path688"
         d="M 0,792 H 612 V 0 H 0 Z" /></clipPath><clipPath
       id="clipPath702"
       clipPathUnits="userSpaceOnUse"><path
         id="path700"
         d="m 100.897,436.333 h 87.581 v 22.6 h -87.581 z" /></clipPath><clipPath
       id="clipPath714"
       clipPathUnits="userSpaceOnUse"><path
         id="path712"
         d="M 0,792 H 612 V 0 H 0 Z" /></clipPath><clipPath
       id="clipPath726"
       clipPathUnits="userSpaceOnUse"><path
         id="path724"
         d="m 100.897,436.333 h 87.581 v 22.6 h -87.581 z" /></clipPath><clipPath
       id="clipPath738"
       clipPathUnits="userSpaceOnUse"><path
         id="path736"
         d="M 0,792 H 612 V 0 H 0 Z" /></clipPath><clipPath
       id="clipPath750"
       clipPathUnits="userSpaceOnUse"><path
         id="path748"
         d="m 100.897,436.333 h 87.581 v 22.6 h -87.581 z" /></clipPath><clipPath
       id="clipPath762"
       clipPathUnits="userSpaceOnUse"><path
         id="path760"
         d="M 0,792 H 612 V 0 H 0 Z" /></clipPath><clipPath
       id="clipPath774"
       clipPathUnits="userSpaceOnUse"><path
         id="path772"
         d="m 100.897,436.333 h 87.581 v 22.6 h -87.581 z" /></clipPath><clipPath
       id="clipPath786"
       clipPathUnits="userSpaceOnUse"><path
         id="path784"
         d="M 0,792 H 612 V 0 H 0 Z" /></clipPath><clipPath
       id="clipPath798"
       clipPathUnits="userSpaceOnUse"><path
         id="path796"
         d="m 100.897,436.333 h 87.581 v 22.6 h -87.581 z" /></clipPath><clipPath
       id="clipPath810"
       clipPathUnits="userSpaceOnUse"><path
         id="path808"
         d="M 0,792 H 612 V 0 H 0 Z" /></clipPath><clipPath
       id="clipPath822"
       clipPathUnits="userSpaceOnUse"><path
         id="path820"
         d="m 100.897,436.333 h 87.581 v 22.6 h -87.581 z" /></clipPath><clipPath
       id="clipPath834"
       clipPathUnits="userSpaceOnUse"><path
         id="path832"
         d="M 0,792 H 612 V 0 H 0 Z" /></clipPath><clipPath
       id="clipPath846"
       clipPathUnits="userSpaceOnUse"><path
         id="path844"
         d="m 100.897,436.333 h 87.581 v 22.6 h -87.581 z" /></clipPath><clipPath
       id="clipPath858"
       clipPathUnits="userSpaceOnUse"><path
         id="path856"
         d="M 0,792 H 612 V 0 H 0 Z" /></clipPath><clipPath
       id="clipPath870"
       clipPathUnits="userSpaceOnUse"><path
         id="path868"
         d="m 100.897,436.333 h 87.581 v 22.6 h -87.581 z" /></clipPath><clipPath
       id="clipPath882"
       clipPathUnits="userSpaceOnUse"><path
         id="path880"
         d="M 0,792 H 612 V 0 H 0 Z" /></clipPath><clipPath
       id="clipPath894"
       clipPathUnits="userSpaceOnUse"><path
         id="path892"
         d="m 100.897,436.333 h 87.581 v 22.6 h -87.581 z" /></clipPath><clipPath
       id="clipPath906"
       clipPathUnits="userSpaceOnUse"><path
         id="path904"
         d="M 0,792 H 612 V 0 H 0 Z" /></clipPath></defs><g
     transform="matrix(1.3333333,0,0,-1.3333333,0,1056)"
     id="g10"><g
       id="g12"><g
         clip-path="url(#clipPath18)"
         id="g14"><g
           transform="translate(117.2412,413.5137)"
           id="g20"><path
             id="path22"
             style="fill:#231f20;fill-opacity:1;fill-rule:nonzero;stroke:none"
             d="m 0,0 h -7.472 v -23.949 c 0,-1.379 0.156,-2.468 0.467,-3.269 0.311,-0.801 0.789,-1.413 1.435,-1.835 0.644,-0.423 1.423,-0.678 2.335,-0.766 0.91,-0.09 1.967,-0.113 3.168,-0.068 v -2.201 c -1.29,-0.089 -2.546,-0.077 -3.769,0.033 -1.224,0.111 -2.301,0.445 -3.235,1.001 -0.934,0.556 -1.679,1.39 -2.235,2.502 -0.557,1.111 -0.79,2.646 -0.701,4.603 V 0 h -6.337 v 2.202 h 6.337 v 10.673 h 2.535 V 2.202 H 0 Z" /></g><g
           transform="translate(117.2412,413.5137)"
           id="g24"><path
             id="path26"
             style="fill:none;stroke:#231f20;stroke-width:1;stroke-linecap:butt;stroke-linejoin:miter;stroke-miterlimit:10;stroke-dasharray:none;stroke-opacity:1"
             d="m 0,0 h -7.472 v -23.949 c 0,-1.379 0.156,-2.468 0.467,-3.269 0.311,-0.801 0.789,-1.413 1.435,-1.835 0.644,-0.423 1.423,-0.678 2.335,-0.766 0.91,-0.09 1.967,-0.113 3.168,-0.068 v -2.201 c -1.29,-0.089 -2.546,-0.077 -3.769,0.033 -1.224,0.111 -2.301,0.445 -3.235,1.001 -0.934,0.556 -1.679,1.39 -2.235,2.502 -0.557,1.111 -0.79,2.646 -0.701,4.603 V 0 h -6.337 v 2.202 h 6.337 v 10.673 h 2.535 V 2.202 H 0 Z" /></g><g
           transform="translate(126.1133,429.0576)"
           id="g28"><path
             id="path30"
             style="fill:#231f20;fill-opacity:1;fill-rule:nonzero;stroke:none"
             d="m 0,0 v -20.681 h 0.133 c 0.444,1.29 1.078,2.435 1.902,3.436 0.822,1.001 1.778,1.856 2.868,2.568 1.089,0.711 2.279,1.245 3.569,1.601 1.29,0.356 2.602,0.534 3.936,0.534 2.002,0 3.702,-0.245 5.104,-0.734 1.401,-0.49 2.545,-1.134 3.435,-1.934 0.889,-0.801 1.59,-1.702 2.101,-2.702 0.511,-1.001 0.878,-2.013 1.101,-3.035 0.222,-1.024 0.356,-2.013 0.4,-2.969 0.044,-0.957 0.067,-1.791 0.067,-2.502 v -21.214 h -2.535 v 21.681 c 0,0.845 -0.066,1.912 -0.2,3.202 -0.133,1.29 -0.523,2.524 -1.167,3.703 -0.646,1.178 -1.624,2.19 -2.936,3.035 -1.312,0.844 -3.125,1.268 -5.437,1.268 -1.957,0 -3.692,-0.357 -5.203,-1.068 -1.513,-0.711 -2.802,-1.701 -3.869,-2.968 -1.068,-1.268 -1.88,-2.78 -2.436,-4.536 C 0.277,-25.073 0,-26.996 0,-29.086 V -47.632 H -2.535 V 0 Z" /></g><g
           transform="translate(126.1133,429.0576)"
           id="g32"><path
             id="path34"
             style="fill:none;stroke:#231f20;stroke-width:1;stroke-linecap:butt;stroke-linejoin:miter;stroke-miterlimit:10;stroke-dasharray:none;stroke-opacity:1"
             d="m 0,0 v -20.681 h 0.133 c 0.444,1.29 1.078,2.435 1.902,3.436 0.822,1.001 1.778,1.856 2.868,2.568 1.089,0.711 2.279,1.245 3.569,1.601 1.29,0.356 2.602,0.534 3.936,0.534 2.002,0 3.702,-0.245 5.104,-0.734 1.401,-0.49 2.545,-1.134 3.435,-1.934 0.889,-0.801 1.59,-1.702 2.101,-2.702 0.511,-1.001 0.878,-2.013 1.101,-3.035 0.222,-1.024 0.356,-2.013 0.4,-2.969 0.044,-0.957 0.067,-1.791 0.067,-2.502 v -21.214 h -2.535 v 21.681 c 0,0.845 -0.066,1.912 -0.2,3.202 -0.133,1.29 -0.523,2.524 -1.167,3.703 -0.646,1.178 -1.624,2.19 -2.936,3.035 -1.312,0.844 -3.125,1.268 -5.437,1.268 -1.957,0 -3.692,-0.357 -5.203,-1.068 -1.513,-0.711 -2.802,-1.701 -3.869,-2.968 -1.068,-1.268 -1.88,-2.78 -2.436,-4.536 C 0.277,-25.073 0,-26.996 0,-29.086 V -47.632 H -2.535 V 0 Z" /></g><g
           transform="translate(157.5986,381.4258)"
           id="g36"><path
             id="path38"
             style="fill:#ee6651;fill-opacity:1;fill-rule:nonzero;stroke:none"
             d="m 0,0 v 7.655 h 6.873 v 30 H 0 v 7.655 h 25.603 v -7.655 h -6.938 v -30 h 6.938 V 0 Z" /></g><g
           transform="translate(189.7295,381.4258)"
           id="g40"><path
             id="path42"
             style="fill:#ee6651;fill-opacity:1;fill-rule:nonzero;stroke:none"
             d="m 0,0 v 7.655 h 6.059 v 30 H 0 V 45.31 H 19.032 L 35.7,17.057 V 37.655 H 29.805 V 45.31 H 50.131 V 37.655 H 43.778 V -0.326 H 33.681 L 14.137,33.258 V 7.655 h 5.7 V 0 Z" /></g><g
           transform="translate(284.8574,426.7358)"
           id="g44"><path
             id="path46"
             style="fill:#ee6651;fill-opacity:1;fill-rule:nonzero;stroke:none"
             d="M 0,0 H 7.654 V -15.961 H 0 c -2.172,5.733 -5.939,8.599 -11.304,8.599 -4.429,0 -7.779,-1.509 -10.049,-4.527 -2.269,-3.019 -3.403,-6.635 -3.403,-10.848 0,-4.408 1.199,-7.975 3.599,-10.7 2.399,-2.726 5.456,-4.088 9.17,-4.088 3.04,0 5.7,1.031 7.98,3.095 2.28,2.062 3.822,4.929 4.626,8.599 l 8.925,-4.251 c -3.388,-10.521 -10.847,-15.782 -22.378,-15.782 -8.144,0 -14.284,2.194 -18.421,6.58 -4.137,4.386 -6.205,9.935 -6.205,16.645 0,4.777 1.075,8.958 3.225,12.541 2.15,3.583 5.043,6.281 8.68,8.095 3.638,1.813 7.628,2.72 11.972,2.72 5.407,0 9.935,-1.412 13.583,-4.235 z" /></g><g
           transform="translate(330.417,381.4258)"
           id="g48"><path
             id="path50"
             style="fill:#231f20;fill-opacity:1;fill-rule:nonzero;stroke:none"
             d="M 0,0 H -2.535 V 7.338 H -2.669 C -3.114,6.048 -3.748,4.903 -4.57,3.902 c -0.824,-1 -1.78,-1.857 -2.868,-2.568 -1.091,-0.712 -2.281,-1.245 -3.57,-1.601 -1.29,-0.355 -2.601,-0.534 -3.935,-0.534 -2.002,0 -3.703,0.245 -5.104,0.735 -1.401,0.488 -2.547,1.133 -3.435,1.934 -0.891,0.8 -1.591,1.701 -2.102,2.701 -0.512,1.001 -0.879,2.012 -1.101,3.036 -0.223,1.023 -0.356,2.012 -0.4,2.968 -0.045,0.956 -0.067,1.79 -0.067,2.502 V 34.29 h 2.535 V 12.608 c 0,-0.89 0.067,-1.967 0.2,-3.235 0.134,-1.268 0.522,-2.491 1.168,-3.669 0.644,-1.18 1.611,-2.191 2.901,-3.036 1.29,-0.845 3.114,-1.267 5.471,-1.267 1.911,0 3.636,0.356 5.17,1.068 1.534,0.71 2.835,1.701 3.902,2.968 1.068,1.267 1.879,2.779 2.436,4.537 0.556,1.755 0.834,3.679 0.834,5.77 V 34.29 H 0 Z" /></g><g
           transform="translate(330.417,381.4258)"
           id="g52"><path
             id="path54"
             style="fill:none;stroke:#231f20;stroke-width:1;stroke-linecap:butt;stroke-linejoin:miter;stroke-miterlimit:10;stroke-dasharray:none;stroke-opacity:1"
             d="M 0,0 H -2.535 V 7.338 H -2.669 C -3.114,6.048 -3.748,4.903 -4.57,3.902 c -0.824,-1 -1.78,-1.857 -2.868,-2.568 -1.091,-0.712 -2.281,-1.245 -3.57,-1.601 -1.29,-0.355 -2.601,-0.534 -3.935,-0.534 -2.002,0 -3.703,0.245 -5.104,0.735 -1.401,0.488 -2.547,1.133 -3.435,1.934 -0.891,0.8 -1.591,1.701 -2.102,2.701 -0.512,1.001 -0.879,2.012 -1.101,3.036 -0.223,1.023 -0.356,2.012 -0.4,2.968 -0.045,0.956 -0.067,1.79 -0.067,2.502 V 34.29 h 2.535 V 12.608 c 0,-0.89 0.067,-1.967 0.2,-3.235 0.134,-1.268 0.522,-2.491 1.168,-3.669 0.644,-1.18 1.611,-2.191 2.901,-3.036 1.29,-0.845 3.114,-1.267 5.471,-1.267 1.911,0 3.636,0.356 5.17,1.068 1.534,0.71 2.835,1.701 3.902,2.968 1.068,1.267 1.879,2.779 2.436,4.537 0.556,1.755 0.834,3.679 0.834,5.77 V 34.29 H 0 Z" /></g><g
           transform="translate(355.8008,382.8271)"
           id="g56"><path
             id="path58"
             style="fill:#231f20;fill-opacity:1;fill-rule:nonzero;stroke:none"
             d="m 0,0 c 2.272,0 4.189,0.488 5.751,1.467 1.561,0.978 2.831,2.257 3.813,3.836 0.981,1.578 1.694,3.357 2.14,5.337 0.446,1.978 0.669,3.946 0.669,5.904 0,1.912 -0.256,3.758 -0.769,5.537 -0.512,1.778 -1.293,3.369 -2.341,4.77 -1.048,1.4 -2.341,2.524 -3.879,3.369 -1.539,0.844 -3.333,1.267 -5.384,1.267 -2.23,0 -4.17,-0.378 -5.82,-1.134 -1.65,-0.757 -3.01,-1.801 -4.079,-3.135 -1.072,-1.335 -1.873,-2.914 -2.409,-4.737 -0.536,-1.824 -0.802,-3.802 -0.802,-5.937 0,-2.091 0.245,-4.136 0.736,-6.138 0.489,-2.001 1.259,-3.768 2.308,-5.303 C -9.019,3.568 -7.67,2.334 -6.021,1.4 -4.371,0.467 -2.364,0 0,0 m -15.646,46.23 h 2.469 V 25.617 h 0.133 c 0.49,1.334 1.182,2.501 2.073,3.502 0.892,1.001 1.917,1.845 3.076,2.535 1.16,0.689 2.408,1.201 3.745,1.534 1.337,0.334 2.719,0.5 4.146,0.5 2.542,0 4.737,-0.444 6.587,-1.334 1.85,-0.89 3.398,-2.112 4.646,-3.668 1.25,-1.558 2.174,-3.37 2.777,-5.437 0.601,-2.068 0.902,-4.304 0.902,-6.705 0,-4.093 -0.557,-7.372 -1.672,-9.84 C 12.121,4.235 10.784,2.345 9.225,1.033 7.664,-0.278 6.037,-1.146 4.343,-1.568 2.648,-1.99 1.199,-2.202 -0.004,-2.202 c -2.274,0 -4.202,0.356 -5.785,1.067 -1.582,0.711 -2.886,1.545 -3.911,2.502 -1.027,0.956 -1.806,1.902 -2.341,2.835 -0.535,0.935 -0.869,1.623 -1.003,2.069 h -0.131 v -7.672 h -2.471 z" /></g><g
           transform="translate(355.8008,382.8271)"
           id="g60"><path
             id="path62"
             style="fill:none;stroke:#231f20;stroke-width:1;stroke-linecap:butt;stroke-linejoin:miter;stroke-miterlimit:10;stroke-dasharray:none;stroke-opacity:1"
             d="m 0,0 c 2.272,0 4.189,0.488 5.751,1.467 1.561,0.978 2.831,2.257 3.813,3.836 0.981,1.578 1.694,3.357 2.14,5.337 0.446,1.978 0.669,3.946 0.669,5.904 0,1.912 -0.256,3.758 -0.769,5.537 -0.512,1.778 -1.293,3.369 -2.341,4.77 -1.048,1.4 -2.341,2.524 -3.879,3.369 -1.539,0.844 -3.333,1.267 -5.384,1.267 -2.23,0 -4.17,-0.378 -5.82,-1.134 -1.65,-0.757 -3.01,-1.801 -4.079,-3.135 -1.072,-1.335 -1.873,-2.914 -2.409,-4.737 -0.536,-1.824 -0.802,-3.802 -0.802,-5.937 0,-2.091 0.245,-4.136 0.736,-6.138 0.489,-2.001 1.259,-3.768 2.308,-5.303 C -9.019,3.568 -7.67,2.334 -6.021,1.4 -4.371,0.467 -2.364,0 0,0 Z m -15.646,46.23 h 2.469 V 25.617 h 0.133 c 0.49,1.334 1.182,2.501 2.073,3.502 0.892,1.001 1.917,1.845 3.076,2.535 1.16,0.689 2.408,1.201 3.745,1.534 1.337,0.334 2.719,0.5 4.146,0.5 2.542,0 4.737,-0.444 6.587,-1.334 1.85,-0.89 3.398,-2.112 4.646,-3.668 1.25,-1.558 2.174,-3.37 2.777,-5.437 0.601,-2.068 0.902,-4.304 0.902,-6.705 0,-4.093 -0.557,-7.372 -1.672,-9.84 C 12.121,4.235 10.784,2.345 9.225,1.033 7.664,-0.278 6.037,-1.146 4.343,-1.568 2.648,-1.99 1.199,-2.202 -0.004,-2.202 c -2.274,0 -4.202,0.356 -5.785,1.067 -1.582,0.711 -2.886,1.545 -3.911,2.502 -1.027,0.956 -1.806,1.902 -2.341,2.835 -0.535,0.935 -0.869,1.623 -1.003,2.069 h -0.131 v -7.672 h -2.471 z" /></g><g
           transform="translate(401.0625,400.9053)"
           id="g64"><path
             id="path66"
             style="fill:#231f20;fill-opacity:1;fill-rule:nonzero;stroke:none"
             d="m 0,0 c -0.623,-0.757 -1.567,-1.268 -2.835,-1.534 -1.268,-0.267 -2.681,-0.467 -4.236,-0.601 l -4.27,-0.4 c -1.246,-0.133 -2.491,-0.323 -3.736,-0.567 -1.245,-0.245 -2.368,-0.657 -3.368,-1.234 -1.001,-0.579 -1.814,-1.368 -2.436,-2.368 -0.623,-1.001 -0.933,-2.302 -0.933,-3.902 0,-2.536 0.8,-4.415 2.401,-5.638 1.601,-1.224 3.803,-1.834 6.604,-1.834 2.891,0 5.181,0.521 6.872,1.567 1.689,1.044 2.979,2.245 3.869,3.603 0.889,1.355 1.456,2.668 1.701,3.935 C -0.123,-7.705 0,-6.85 0,-6.404 Z m 0,-12.675 h -0.134 c -0.4,-1.023 -0.978,-1.991 -1.734,-2.902 -0.757,-0.912 -1.679,-1.724 -2.769,-2.435 -1.09,-0.712 -2.324,-1.267 -3.702,-1.668 -1.379,-0.4 -2.891,-0.6 -4.536,-0.6 -3.647,0 -6.472,0.79 -8.473,2.368 -2.001,1.578 -3.002,4.014 -3.002,7.306 0,2.001 0.401,3.635 1.202,4.902 0.799,1.267 1.811,2.268 3.035,3.002 1.222,0.734 2.578,1.257 4.069,1.568 1.489,0.311 2.924,0.533 4.303,0.667 l 3.935,0.334 C -5.982,0 -4.548,0.211 -3.502,0.5 c 1.044,0.289 1.834,0.689 2.368,1.201 0.533,0.511 0.867,1.168 1,1.968 0.134,0.801 0.2,1.801 0.2,3.002 0,0.934 -0.177,1.802 -0.533,2.602 -0.356,0.801 -0.912,1.511 -1.668,2.135 -0.757,0.622 -1.734,1.111 -2.935,1.467 -1.201,0.356 -2.668,0.534 -4.403,0.534 -3.069,0 -5.548,-0.757 -7.438,-2.268 -1.891,-1.513 -2.925,-3.803 -3.103,-6.871 h -2.535 c 0.178,3.779 1.39,6.614 3.636,8.505 2.246,1.89 5.437,2.835 9.573,2.835 4.137,0 7.149,-0.812 9.04,-2.434 1.89,-1.624 2.835,-3.748 2.835,-6.371 v -19.947 c 0,-0.49 0.01,-0.979 0.033,-1.467 0.022,-0.491 0.1,-0.935 0.234,-1.334 0.134,-0.401 0.355,-0.724 0.667,-0.968 0.31,-0.245 0.756,-0.367 1.334,-0.367 0.444,0 1.067,0.067 1.868,0.2 v -2.135 c -0.667,-0.178 -1.358,-0.266 -2.068,-0.266 -1.024,0 -1.834,0.133 -2.435,0.4 -0.601,0.267 -1.057,0.622 -1.367,1.067 -0.312,0.445 -0.524,0.967 -0.634,1.568 C 0.055,-15.844 0,-15.188 0,-14.477 Z" /></g><g
           transform="translate(401.0625,400.9053)"
           id="g68"><path
             id="path70"
             style="fill:none;stroke:#231f20;stroke-width:1;stroke-linecap:butt;stroke-linejoin:miter;stroke-miterlimit:10;stroke-dasharray:none;stroke-opacity:1"
             d="m 0,0 c -0.623,-0.757 -1.567,-1.268 -2.835,-1.534 -1.268,-0.267 -2.681,-0.467 -4.236,-0.601 l -4.27,-0.4 c -1.246,-0.133 -2.491,-0.323 -3.736,-0.567 -1.245,-0.245 -2.368,-0.657 -3.368,-1.234 -1.001,-0.579 -1.814,-1.368 -2.436,-2.368 -0.623,-1.001 -0.933,-2.302 -0.933,-3.902 0,-2.536 0.8,-4.415 2.401,-5.638 1.601,-1.224 3.803,-1.834 6.604,-1.834 2.891,0 5.181,0.521 6.872,1.567 1.689,1.044 2.979,2.245 3.869,3.603 0.889,1.355 1.456,2.668 1.701,3.935 C -0.123,-7.705 0,-6.85 0,-6.404 Z m 0,-12.675 h -0.134 c -0.4,-1.023 -0.978,-1.991 -1.734,-2.902 -0.757,-0.912 -1.679,-1.724 -2.769,-2.435 -1.09,-0.712 -2.324,-1.267 -3.702,-1.668 -1.379,-0.4 -2.891,-0.6 -4.536,-0.6 -3.647,0 -6.472,0.79 -8.473,2.368 -2.001,1.578 -3.002,4.014 -3.002,7.306 0,2.001 0.401,3.635 1.202,4.902 0.799,1.267 1.811,2.268 3.035,3.002 1.222,0.734 2.578,1.257 4.069,1.568 1.489,0.311 2.924,0.533 4.303,0.667 l 3.935,0.334 C -5.982,0 -4.548,0.211 -3.502,0.5 c 1.044,0.289 1.834,0.689 2.368,1.201 0.533,0.511 0.867,1.168 1,1.968 0.134,0.801 0.2,1.801 0.2,3.002 0,0.934 -0.177,1.802 -0.533,2.602 -0.356,0.801 -0.912,1.511 -1.668,2.135 -0.757,0.622 -1.734,1.111 -2.935,1.467 -1.201,0.356 -2.668,0.534 -4.403,0.534 -3.069,0 -5.548,-0.757 -7.438,-2.268 -1.891,-1.513 -2.925,-3.803 -3.103,-6.871 h -2.535 c 0.178,3.779 1.39,6.614 3.636,8.505 2.246,1.89 5.437,2.835 9.573,2.835 4.137,0 7.149,-0.812 9.04,-2.434 1.89,-1.624 2.835,-3.748 2.835,-6.371 v -19.947 c 0,-0.49 0.01,-0.979 0.033,-1.467 0.022,-0.491 0.1,-0.935 0.234,-1.334 0.134,-0.401 0.355,-0.724 0.667,-0.968 0.31,-0.245 0.756,-0.367 1.334,-0.367 0.444,0 1.067,0.067 1.868,0.2 v -2.135 c -0.667,-0.178 -1.358,-0.266 -2.068,-0.266 -1.024,0 -1.834,0.133 -2.435,0.4 -0.601,0.267 -1.057,0.622 -1.367,1.067 -0.312,0.445 -0.524,0.967 -0.634,1.568 C 0.055,-15.844 0,-15.188 0,-14.477 Z" /></g><g
           transform="translate(425.9453,413.5137)"
           id="g72"><path
             id="path74"
             style="fill:#231f20;fill-opacity:1;fill-rule:nonzero;stroke:none"
             d="m 0,0 h -7.471 v -23.949 c 0,-1.379 0.156,-2.468 0.467,-3.269 0.311,-0.801 0.789,-1.413 1.434,-1.835 0.644,-0.423 1.423,-0.678 2.335,-0.766 0.911,-0.09 1.968,-0.113 3.169,-0.068 v -2.201 c -1.29,-0.089 -2.546,-0.077 -3.769,0.033 -1.225,0.111 -2.302,0.445 -3.236,1.001 -0.934,0.556 -1.679,1.39 -2.235,2.502 -0.556,1.111 -0.79,2.646 -0.7,4.603 V 0 h -6.338 v 2.202 h 6.338 v 10.673 h 2.535 V 2.202 H 0 Z" /></g><g
           transform="translate(425.9453,413.5137)"
           id="g76"><path
             id="path78"
             style="fill:none;stroke:#231f20;stroke-width:1;stroke-linecap:butt;stroke-linejoin:miter;stroke-miterlimit:10;stroke-dasharray:none;stroke-opacity:1"
             d="m 0,0 h -7.471 v -23.949 c 0,-1.379 0.156,-2.468 0.467,-3.269 0.311,-0.801 0.789,-1.413 1.434,-1.835 0.644,-0.423 1.423,-0.678 2.335,-0.766 0.911,-0.09 1.968,-0.113 3.169,-0.068 v -2.201 c -1.29,-0.089 -2.546,-0.077 -3.769,0.033 -1.225,0.111 -2.302,0.445 -3.236,1.001 -0.934,0.556 -1.679,1.39 -2.235,2.502 -0.556,1.111 -0.79,2.646 -0.7,4.603 V 0 h -6.338 v 2.202 h 6.338 v 10.673 h 2.535 V 2.202 H 0 Z" /></g><g
           transform="translate(432.2832,398.5703)"
           id="g80"><path
             id="path82"
             style="fill:#231f20;fill-opacity:1;fill-rule:nonzero;stroke:none"
             d="m 0,0 c 0,-2.046 0.289,-4.014 0.867,-5.903 0.577,-1.892 1.423,-3.57 2.535,-5.037 1.112,-1.468 2.491,-2.635 4.136,-3.502 1.645,-0.868 3.536,-1.301 5.671,-1.301 2.135,0 4.024,0.433 5.67,1.301 1.644,0.867 3.024,2.034 4.137,3.502 1.11,1.467 1.956,3.145 2.534,5.037 0.578,1.889 0.867,3.857 0.867,5.903 0,2.045 -0.289,4.014 -0.867,5.904 -0.578,1.89 -1.424,3.569 -2.534,5.037 -1.113,1.468 -2.493,2.635 -4.137,3.502 -1.646,0.868 -3.535,1.301 -5.67,1.301 -2.135,0 -4.026,-0.433 -5.671,-1.301 C 5.893,13.576 4.514,12.409 3.402,10.941 2.29,9.473 1.444,7.794 0.867,5.904 0.289,4.014 0,2.045 0,0 m -2.535,0 c 0,2.445 0.344,4.747 1.034,6.904 0.689,2.158 1.701,4.059 3.035,5.704 1.334,1.645 2.98,2.946 4.937,3.903 1.957,0.956 4.203,1.434 6.738,1.434 2.535,0 4.78,-0.478 6.737,-1.434 1.957,-0.957 3.603,-2.258 4.937,-3.903 1.335,-1.645 2.346,-3.546 3.035,-5.704 0.689,-2.157 1.034,-4.459 1.034,-6.904 0,-2.446 -0.345,-4.759 -1.034,-6.937 -0.689,-2.18 -1.7,-4.082 -3.035,-5.705 -1.334,-1.624 -2.98,-2.913 -4.937,-3.869 -1.957,-0.956 -4.202,-1.434 -6.737,-1.434 -2.535,0 -4.781,0.478 -6.738,1.434 -1.957,0.956 -3.603,2.245 -4.937,3.869 -1.334,1.623 -2.346,3.525 -3.035,5.705 -0.69,2.178 -1.034,4.491 -1.034,6.937" /></g><g
           transform="translate(432.2832,398.5703)"
           id="g84"><path
             id="path86"
             style="fill:none;stroke:#231f20;stroke-width:1;stroke-linecap:butt;stroke-linejoin:miter;stroke-miterlimit:10;stroke-dasharray:none;stroke-opacity:1"
             d="m 0,0 c 0,-2.046 0.289,-4.014 0.867,-5.903 0.577,-1.892 1.423,-3.57 2.535,-5.037 1.112,-1.468 2.491,-2.635 4.136,-3.502 1.645,-0.868 3.536,-1.301 5.671,-1.301 2.135,0 4.024,0.433 5.67,1.301 1.644,0.867 3.024,2.034 4.137,3.502 1.11,1.467 1.956,3.145 2.534,5.037 0.578,1.889 0.867,3.857 0.867,5.903 0,2.045 -0.289,4.014 -0.867,5.904 -0.578,1.89 -1.424,3.569 -2.534,5.037 -1.113,1.468 -2.493,2.635 -4.137,3.502 -1.646,0.868 -3.535,1.301 -5.67,1.301 -2.135,0 -4.026,-0.433 -5.671,-1.301 C 5.893,13.576 4.514,12.409 3.402,10.941 2.29,9.473 1.444,7.794 0.867,5.904 0.289,4.014 0,2.045 0,0 Z m -2.535,0 c 0,2.445 0.344,4.747 1.034,6.904 0.689,2.158 1.701,4.059 3.035,5.704 1.334,1.645 2.98,2.946 4.937,3.903 1.957,0.956 4.203,1.434 6.738,1.434 2.535,0 4.78,-0.478 6.737,-1.434 1.957,-0.957 3.603,-2.258 4.937,-3.903 1.335,-1.645 2.346,-3.546 3.035,-5.704 0.689,-2.157 1.034,-4.459 1.034,-6.904 0,-2.446 -0.345,-4.759 -1.034,-6.937 -0.689,-2.18 -1.7,-4.082 -3.035,-5.705 -1.334,-1.624 -2.98,-2.913 -4.937,-3.869 -1.957,-0.956 -4.202,-1.434 -6.737,-1.434 -2.535,0 -4.781,0.478 -6.738,1.434 -1.957,0.956 -3.603,2.245 -4.937,3.869 -1.334,1.623 -2.346,3.525 -3.035,5.705 -0.69,2.178 -1.034,4.491 -1.034,6.937 z" /></g><g
           transform="translate(471.375,408.1104)"
           id="g88"><path
             id="path90"
             style="fill:#231f20;fill-opacity:1;fill-rule:nonzero;stroke:none"
             d="m 0,0 h 0.2 c 0.311,1.111 0.878,2.156 1.701,3.135 0.823,0.978 1.824,1.823 3.002,2.535 1.178,0.711 2.491,1.256 3.937,1.635 1.444,0.377 2.945,0.544 4.503,0.5 V 5.27 C 12.009,5.447 10.484,5.314 8.772,4.87 7.061,4.425 5.426,3.446 3.869,1.935 3.246,1.268 2.702,0.622 2.235,0 1.769,-0.624 1.378,-1.312 1.067,-2.068 0.756,-2.825 0.511,-3.669 0.334,-4.604 0.155,-5.537 0.044,-6.649 0,-7.938 V -26.685 H -2.535 V 7.605 H 0 Z" /></g><g
           transform="translate(471.375,408.1104)"
           id="g92"><path
             id="path94"
             style="fill:none;stroke:#231f20;stroke-width:1;stroke-linecap:butt;stroke-linejoin:miter;stroke-miterlimit:10;stroke-dasharray:none;stroke-opacity:1"
             d="m 0,0 h 0.2 c 0.311,1.111 0.878,2.156 1.701,3.135 0.823,0.978 1.824,1.823 3.002,2.535 1.178,0.711 2.491,1.256 3.937,1.635 1.444,0.377 2.945,0.544 4.503,0.5 V 5.27 C 12.009,5.447 10.484,5.314 8.772,4.87 7.061,4.425 5.426,3.446 3.869,1.935 3.246,1.268 2.702,0.622 2.235,0 1.769,-0.624 1.378,-1.312 1.067,-2.068 0.756,-2.825 0.511,-3.669 0.334,-4.604 0.155,-5.537 0.044,-6.649 0,-7.938 V -26.685 H -2.535 V 7.605 H 0 Z" /></g><g
           transform="translate(102.8467,368.4395)"
           id="g96"><path
             id="path98"
             style="fill:#231f20;fill-opacity:1;fill-rule:nonzero;stroke:none"
             d="M 0,0 V -2.291 H 2.077 V -3.395 H 0 v -4.3 c 0,-0.99 0.28,-1.55 1.088,-1.55 0.379,0 0.659,0.05 0.84,0.099 l 0.066,-1.087 c -0.28,-0.116 -0.725,-0.199 -1.286,-0.199 -0.675,0 -1.219,0.215 -1.565,0.611 -0.412,0.427 -0.56,1.136 -0.56,2.076 v 4.35 h -1.236 v 1.104 h 1.236 v 1.912 z" /></g><g
           transform="translate(107.3765,369.873)"
           id="g100"><path
             id="path102"
             style="fill:#231f20;fill-opacity:1;fill-rule:nonzero;stroke:none"
             d="m 0,0 h 1.45 v -4.977 h 0.033 c 0.231,0.413 0.593,0.775 1.038,1.022 0.429,0.247 0.939,0.412 1.483,0.412 1.072,0 2.786,-0.659 2.786,-3.411 V -11.7 H 5.339 v 4.581 c 0,1.285 -0.478,2.373 -1.845,2.373 -0.94,0 -1.682,-0.659 -1.945,-1.45 C 1.467,-6.394 1.45,-6.608 1.45,-6.889 V -11.7 H 0 Z" /></g><g
           transform="translate(122.4019,362.9355)"
           id="g104"><path
             id="path106"
             style="fill:#231f20;fill-opacity:1;fill-rule:nonzero;stroke:none"
             d="M 0,0 C 0.017,0.923 -0.379,2.356 -2.011,2.356 -3.477,2.356 -4.12,1.005 -4.235,0 Z m -4.252,-1.038 c 0.033,-1.961 1.286,-2.769 2.736,-2.769 1.038,0 1.664,0.181 2.208,0.412 l 0.247,-1.039 c -0.51,-0.23 -1.384,-0.494 -2.653,-0.494 -2.455,0 -3.922,1.615 -3.922,4.022 0,2.406 1.417,4.301 3.741,4.301 2.603,0 3.296,-2.291 3.296,-3.757 0,-0.297 -0.033,-0.528 -0.049,-0.676 z" /></g><g
           transform="translate(130.7354,369.873)"
           id="g108"><path
             id="path110"
             style="fill:#231f20;fill-opacity:1;fill-rule:nonzero;stroke:none"
             d="m 0,0 h 1.45 v -4.977 h 0.033 c 0.231,0.413 0.593,0.775 1.038,1.022 0.429,0.247 0.939,0.412 1.483,0.412 1.072,0 2.786,-0.659 2.786,-3.411 V -11.7 H 5.339 v 4.581 c 0,1.285 -0.478,2.373 -1.845,2.373 -0.94,0 -1.682,-0.659 -1.945,-1.45 C 1.466,-6.394 1.45,-6.608 1.45,-6.889 V -11.7 H 0 Z" /></g><g
           transform="translate(141.5918,362.1445)"
           id="g112"><path
             id="path114"
             style="fill:#231f20;fill-opacity:1;fill-rule:nonzero;stroke:none"
             d="m 0,0 c 0,-1.747 1.005,-3.065 2.422,-3.065 1.385,0 2.423,1.301 2.423,3.098 0,1.351 -0.676,3.065 -2.389,3.065 C 0.742,3.098 0,1.516 0,0 m 6.328,0.082 c 0,-2.949 -2.043,-4.235 -3.971,-4.235 -2.159,0 -3.823,1.582 -3.823,4.103 0,2.67 1.746,4.236 3.955,4.236 2.29,0 3.839,-1.665 3.839,-4.104" /></g><g
           transform="translate(150.5693,363.9902)"
           id="g116"><path
             id="path118"
             style="fill:#231f20;fill-opacity:1;fill-rule:nonzero;stroke:none"
             d="M 0,0 C 0,0.824 -0.017,1.5 -0.066,2.158 H 1.203 L 1.269,0.873 H 1.318 C 1.763,1.631 2.505,2.34 3.823,2.34 4.911,2.34 5.735,1.681 6.081,0.741 h 0.033 c 0.247,0.446 0.56,0.791 0.889,1.038 0.479,0.364 1.006,0.561 1.764,0.561 1.055,0 2.62,-0.693 2.62,-3.461 V -5.817 H 9.97 v 4.515 C 9.97,0.23 9.41,1.153 8.24,1.153 7.416,1.153 6.773,0.544 6.526,-0.165 6.459,-0.362 6.411,-0.626 6.411,-0.89 V -5.817 H 4.994 v 4.779 C 4.994,0.23 4.433,1.153 3.329,1.153 2.422,1.153 1.763,0.429 1.533,-0.297 1.45,-0.511 1.417,-0.758 1.417,-1.006 V -5.817 H 0 Z" /></g><g
           transform="translate(170.1919,362.9355)"
           id="g120"><path
             id="path122"
             style="fill:#231f20;fill-opacity:1;fill-rule:nonzero;stroke:none"
             d="M 0,0 C 0.016,0.923 -0.38,2.356 -2.011,2.356 -3.478,2.356 -4.12,1.005 -4.235,0 Z m -4.252,-1.038 c 0.033,-1.961 1.285,-2.769 2.735,-2.769 1.038,0 1.664,0.181 2.208,0.412 l 0.247,-1.039 c -0.51,-0.23 -1.383,-0.494 -2.653,-0.494 -2.455,0 -3.922,1.615 -3.922,4.022 0,2.406 1.418,4.301 3.741,4.301 2.604,0 3.296,-2.291 3.296,-3.757 0,-0.297 -0.033,-0.528 -0.049,-0.676 z" /></g><g
           transform="translate(178.6733,358.1729)"
           id="g124"><path
             id="path126"
             style="fill:#231f20;fill-opacity:1;fill-rule:nonzero;stroke:none"
             d="M 0,0 V 6.872 H -1.121 V 7.976 H 0 v 0.379 c 0,1.121 0.247,2.142 0.923,2.785 0.544,0.527 1.268,0.742 1.944,0.742 0.511,0 0.956,-0.115 1.237,-0.231 L 3.905,10.53 c -0.214,0.099 -0.51,0.182 -0.923,0.182 -1.235,0 -1.548,-1.088 -1.548,-2.308 V 7.976 H 3.361 V 6.872 H 1.434 V 0 Z" /></g><g
           transform="translate(184.8345,362.1445)"
           id="g128"><path
             id="path130"
             style="fill:#231f20;fill-opacity:1;fill-rule:nonzero;stroke:none"
             d="m 0,0 c 0,-1.747 1.006,-3.065 2.423,-3.065 1.384,0 2.422,1.301 2.422,3.098 0,1.351 -0.675,3.065 -2.39,3.065 C 0.742,3.098 0,1.516 0,0 m 6.328,0.082 c 0,-2.949 -2.043,-4.235 -3.972,-4.235 -2.158,0 -3.823,1.582 -3.823,4.103 0,2.67 1.747,4.236 3.955,4.236 2.291,0 3.84,-1.665 3.84,-4.104" /></g><g
           transform="translate(193.812,363.6602)"
           id="g132"><path
             id="path134"
             style="fill:#231f20;fill-opacity:1;fill-rule:nonzero;stroke:none"
             d="M 0,0 C 0,0.939 -0.017,1.747 -0.066,2.488 H 1.203 L 1.252,0.923 H 1.318 C 1.681,1.994 2.554,2.67 3.526,2.67 3.691,2.67 3.807,2.653 3.938,2.621 V 1.253 C 3.79,1.286 3.642,1.303 3.444,1.303 2.423,1.303 1.697,0.527 1.499,-0.56 1.467,-0.758 1.434,-0.988 1.434,-1.235 V -5.487 H 0 Z" /></g><g
           transform="translate(203.4976,358.1729)"
           id="g136"><path
             id="path138"
             style="fill:#ee6651;fill-opacity:1;fill-rule:nonzero;stroke:none"
             d="M 0,0 V 1.891 H 1.697 V 9.299 H 0 v 1.889 H 6.322 V 9.299 H 4.608 V 1.891 H 6.322 V 0 Z" /></g><g
           transform="translate(211.4321,358.1729)"
           id="g140"><path
             id="path142"
             style="fill:#ee6651;fill-opacity:1;fill-rule:nonzero;stroke:none"
             d="M 0,0 V 1.891 H 1.496 V 9.299 H 0 v 1.889 H 4.7 L 8.816,4.212 V 9.299 H 7.36 v 1.889 h 5.019 V 9.299 H 10.811 V -0.08 H 8.317 L 3.491,8.213 V 1.891 H 4.898 V 0 Z" /></g><g
           transform="translate(225.3022,358.1729)"
           id="g144"><path
             id="path146"
             style="fill:#ee6651;fill-opacity:1;fill-rule:nonzero;stroke:none"
             d="M 0,0 V 1.891 H 1.496 V 9.299 H 0 v 1.889 H 4.7 L 8.816,4.212 V 9.299 H 7.36 v 1.889 h 5.019 V 9.299 H 10.811 V -0.08 H 8.317 L 3.491,8.213 V 1.891 H 4.898 V 0 Z" /></g><g
           transform="translate(245.7612,367.4951)"
           id="g148"><path
             id="path150"
             style="fill:#ee6651;fill-opacity:1;fill-rule:nonzero;stroke:none"
             d="m 0,0 c -0.858,0 -1.586,-0.321 -2.184,-0.965 -0.598,-0.643 -0.897,-1.587 -0.897,-2.831 0,-1.1 0.295,-1.979 0.885,-2.639 0.59,-0.659 1.322,-0.989 2.196,-0.989 0.857,0 1.587,0.323 2.188,0.969 0.6,0.646 0.901,1.578 0.901,2.796 0,1.088 -0.287,1.971 -0.86,2.646 C 1.654,-0.337 0.911,0 0,0 m 0,2.044 c 1.931,0 3.449,-0.559 4.557,-1.674 1.107,-1.115 1.661,-2.474 1.661,-4.078 0,-1.608 -0.555,-2.97 -1.665,-4.082 C 3.442,-8.902 1.925,-9.459 0,-9.459 c -2,0 -3.537,0.572 -4.609,1.718 -1.073,1.144 -1.609,2.489 -1.609,4.033 0,1.599 0.551,2.956 1.654,4.074 1.101,1.118 2.623,1.678 4.564,1.678" /></g><g
           transform="translate(257.0259,358.1006)"
           id="g152"><path
             id="path154"
             style="fill:#ee6651;fill-opacity:1;fill-rule:nonzero;stroke:none"
             d="m 0,0 -3.33,9.371 h -1.336 v 1.89 H 1.045 V 9.371 H -0.402 L 1.479,3.764 3.366,9.371 H 1.938 v 1.89 H 6.894 V 9.371 H 5.534 L 2.324,0 Z" /></g><g
           transform="translate(270.4292,363.627)"
           id="g156"><path
             id="path158"
             style="fill:#ee6651;fill-opacity:1;fill-rule:nonzero;stroke:none"
             d="M 0,0 -0.933,3.37 -1.938,0 Z m 5.06,-3.563 v -1.891 h -5.502 v 1.891 h 1.431 l -0.53,1.921 H -2.445 L -3.04,-3.563 h 1.496 v -1.891 h -4.955 v 1.891 h 1.384 l 2.179,7.408 H -4.424 V 5.734 H 2.88 V 3.845 H 1.376 l 2.349,-7.408 z" /></g><g
           transform="translate(278.2358,358.1729)"
           id="g160"><path
             id="path162"
             style="fill:#ee6651;fill-opacity:1;fill-rule:nonzero;stroke:none"
             d="M 0,0 V 1.891 H 1.681 V 9.299 H 0 V 6.692 h -1.923 v 4.496 H 8.221 V 6.692 H 6.322 V 9.299 H 4.593 V 1.891 h 1.68 V 0 Z" /></g><g
           transform="translate(288.1411,358.1729)"
           id="g164"><path
             id="path166"
             style="fill:#ee6651;fill-opacity:1;fill-rule:nonzero;stroke:none"
             d="M 0,0 V 1.891 H 1.697 V 9.299 H 0 v 1.889 H 6.322 V 9.299 H 4.608 V 1.891 H 6.322 V 0 Z" /></g><g
           transform="translate(300.2739,358.1006)"
           id="g168"><path
             id="path170"
             style="fill:#ee6651;fill-opacity:1;fill-rule:nonzero;stroke:none"
             d="m 0,0 -3.33,9.371 h -1.336 v 1.89 H 1.045 V 9.371 H -0.402 L 1.479,3.764 3.366,9.371 H 1.938 v 1.89 H 6.894 V 9.371 H 5.534 L 2.324,0 Z" /></g><g
           transform="translate(308.5059,358.1729)"
           id="g172"><path
             id="path174"
             style="fill:#ee6651;fill-opacity:1;fill-rule:nonzero;stroke:none"
             d="M 0,0 V 1.891 H 1.344 V 9.299 H 0 v 1.889 H 9.861 V 7.642 H 7.721 V 9.299 H 4.254 V 6.717 H 7.055 V 4.826 H 4.254 V 1.891 h 3.467 v 1.672 h 2.14 V 0 Z" /></g><g
           transform="translate(325.1543,358.1729)"
           id="g176"><path
             id="path178"
             style="fill:#ee6651;fill-opacity:1;fill-rule:nonzero;stroke:none"
             d="M 0,0 V 1.891 H 1.496 V 9.299 H 0 v 1.889 H 4.701 L 8.816,4.212 V 9.299 H 7.361 v 1.889 h 5.018 V 9.299 H 10.811 V -0.08 H 8.318 L 3.492,8.213 V 1.891 H 4.898 V 0 Z" /></g><g
           transform="translate(339.1289,358.1729)"
           id="g180"><path
             id="path182"
             style="fill:#ee6651;fill-opacity:1;fill-rule:nonzero;stroke:none"
             d="M 0,0 V 1.891 H 1.344 V 9.299 H 0 v 1.889 H 9.861 V 7.642 H 7.723 V 9.299 H 4.256 V 6.717 H 7.055 V 4.826 H 4.256 V 1.891 H 7.723 V 3.563 H 9.861 V 0 Z" /></g><g
           transform="translate(354.7539,358.1006)"
           id="g184"><path
             id="path186"
             style="fill:#ee6651;fill-opacity:1;fill-rule:nonzero;stroke:none"
             d="m 0,0 -3.193,9.371 h -1.182 v 1.89 H 0.668 V 9.371 H -0.49 L 1.326,3.998 3.033,9.371 H 2.02 v 1.89 H 6.041 V 9.371 H 5.004 L 6.838,3.998 8.598,9.371 H 7.48 v 1.89 h 4.481 V 9.371 H 10.746 L 7.658,0 H 5.566 L 3.805,5.107 2.139,0 Z" /></g><g
           transform="translate(382.5352,369.3613)"
           id="g188"><path
             id="path190"
             style="fill:#ee6651;fill-opacity:1;fill-rule:nonzero;stroke:none"
             d="M 0,0 H 1.891 V -3.941 H 0 c -0.535,1.416 -1.467,2.124 -2.791,2.124 -1.094,0 -1.92,-0.373 -2.48,-1.119 -0.561,-0.745 -0.842,-1.638 -0.842,-2.678 0,-1.089 0.297,-1.97 0.888,-2.643 0.594,-0.673 1.348,-1.009 2.266,-1.009 0.75,0 1.408,0.254 1.971,0.764 0.562,0.51 0.943,1.218 1.142,2.124 l 2.203,-1.05 c -0.836,-2.598 -2.677,-3.897 -5.525,-3.897 -2.012,0 -3.527,0.542 -4.549,1.625 -1.021,1.083 -1.533,2.453 -1.533,4.11 0,1.18 0.266,2.212 0.797,3.097 0.531,0.885 1.246,1.551 2.142,1.999 0.899,0.447 1.885,0.672 2.957,0.672 1.336,0 2.454,-0.349 3.354,-1.046 z" /></g><g
           transform="translate(393.1895,367.4951)"
           id="g192"><path
             id="path194"
             style="fill:#ee6651;fill-opacity:1;fill-rule:nonzero;stroke:none"
             d="m 0,0 c -0.859,0 -1.586,-0.321 -2.184,-0.965 -0.599,-0.643 -0.898,-1.587 -0.898,-2.831 0,-1.1 0.295,-1.979 0.885,-2.639 0.59,-0.659 1.322,-0.989 2.197,-0.989 0.857,0 1.586,0.323 2.188,0.969 0.599,0.646 0.9,1.578 0.9,2.796 0,1.088 -0.287,1.971 -0.859,2.646 C 1.654,-0.337 0.91,0 0,0 m 0,2.044 c 1.93,0 3.449,-0.559 4.557,-1.674 1.107,-1.115 1.66,-2.474 1.66,-4.078 0,-1.608 -0.555,-2.97 -1.664,-4.082 C 3.441,-8.902 1.924,-9.459 0,-9.459 c -2,0 -3.537,0.572 -4.609,1.718 -1.073,1.144 -1.61,2.489 -1.61,4.033 0,1.599 0.551,2.956 1.655,4.074 1.101,1.118 2.623,1.678 4.564,1.678" /></g><g
           transform="translate(401.5,358.1729)"
           id="g196"><path
             id="path198"
             style="fill:#ee6651;fill-opacity:1;fill-rule:nonzero;stroke:none"
             d="M 0,0 V 1.891 H 1.449 V 9.299 H 0 v 1.889 h 5.613 l 2.455,-6.553 2.469,6.553 h 5.721 V 9.299 H 14.809 V 1.891 h 1.449 V 0 h -5.631 v 1.891 h 1.352 V 9.299 H 11.713 L 8.246,0 H 7.039 L 3.531,9.299 H 3.266 V 1.891 H 4.73 V 0 Z" /></g><g
           transform="translate(423.8652,364.1016)"
           id="g200"><path
             id="path202"
             style="fill:#ee6651;fill-opacity:1;fill-rule:nonzero;stroke:none"
             d="m 0,0 h 0.436 c 0.996,0 1.638,0.162 1.925,0.486 0.287,0.325 0.43,0.728 0.43,1.21 0,0.408 -0.098,0.755 -0.297,1.042 C 2.295,3.025 2.068,3.202 1.811,3.27 1.553,3.336 1.133,3.37 0.547,3.37 H 0 Z m 1.561,-4.038 v -1.891 h -5.897 v 1.891 h 1.424 V 3.37 H -4.336 V 5.26 H 1.561 C 2.934,5.26 3.994,4.938 4.742,4.295 5.49,3.651 5.865,2.785 5.865,1.696 5.865,1.074 5.732,0.511 5.471,0.004 5.207,-0.503 4.871,-0.892 4.461,-1.163 4.051,-1.434 3.582,-1.618 3.053,-1.718 2.525,-1.817 1.863,-1.866 1.07,-1.866 H 0 v -2.172 z" /></g><g
           transform="translate(436.0703,363.627)"
           id="g204"><path
             id="path206"
             style="fill:#ee6651;fill-opacity:1;fill-rule:nonzero;stroke:none"
             d="M 0,0 -0.932,3.37 -1.937,0 Z m 5.061,-3.563 v -1.891 h -5.502 v 1.891 H 0.99 l -0.531,1.921 h -2.904 l -0.594,-1.921 h 1.496 v -1.891 h -4.955 v 1.891 h 1.383 l 2.179,7.408 H -4.424 V 5.734 H 2.881 V 3.845 H 1.377 l 2.348,-7.408 z" /></g><g
           transform="translate(442.3809,358.1729)"
           id="g208"><path
             id="path210"
             style="fill:#ee6651;fill-opacity:1;fill-rule:nonzero;stroke:none"
             d="M 0,0 V 1.891 H 1.496 V 9.299 H 0 v 1.889 H 4.701 L 8.816,4.212 V 9.299 H 7.361 v 1.889 h 5.018 V 9.299 H 10.811 V -0.08 H 8.318 L 3.492,8.213 V 1.891 H 4.898 V 0 Z" /></g><g
           transform="translate(456.1719,358.1729)"
           id="g212"><path
             id="path214"
             style="fill:#ee6651;fill-opacity:1;fill-rule:nonzero;stroke:none"
             d="M 0,0 V 1.891 H 1.697 V 9.299 H 0 v 1.889 H 6.322 V 9.299 H 4.607 V 1.891 H 6.322 V 0 Z" /></g><g
           transform="translate(464.209,358.1729)"
           id="g216"><path
             id="path218"
             style="fill:#ee6651;fill-opacity:1;fill-rule:nonzero;stroke:none"
             d="M 0,0 V 1.891 H 1.344 V 9.299 H 0 v 1.889 H 9.861 V 7.642 H 7.723 V 9.299 H 4.256 V 6.717 H 7.055 V 4.826 H 4.256 V 1.891 H 7.723 V 3.563 H 9.861 V 0 Z" /></g><g
           transform="translate(476.2539,358.1729)"
           id="g220"><path
             id="path222"
             style="fill:#ee6651;fill-opacity:1;fill-rule:nonzero;stroke:none"
             d="M 0,0 V 3.813 H 1.898 C 1.92,3.115 2.102,2.603 2.445,2.272 2.789,1.942 3.18,1.777 3.621,1.777 c 0.342,0 0.631,0.119 0.867,0.359 0.237,0.238 0.356,0.518 0.356,0.841 0,0.342 -0.117,0.63 -0.348,0.864 C 4.266,4.074 3.846,4.34 3.232,4.638 1.937,5.261 1.061,5.812 0.598,6.29 0.135,6.768 -0.096,7.412 -0.096,8.224 c 0,0.977 0.305,1.735 0.916,2.272 0.612,0.537 1.307,0.806 2.084,0.806 0.891,0 1.58,-0.348 2.067,-1.042 v 0.928 h 1.89 V 7.786 H 4.971 C 4.912,8.312 4.73,8.718 4.428,9.005 4.125,9.292 3.773,9.436 3.371,9.436 3.061,9.436 2.797,9.353 2.582,9.186 2.367,9.02 2.262,8.803 2.262,8.534 2.262,8.304 2.35,8.085 2.525,7.879 2.703,7.672 3.221,7.38 4.08,7.001 4.906,6.633 5.541,6.3 5.982,6.002 6.424,5.704 6.773,5.317 7.031,4.843 7.289,4.367 7.416,3.818 7.416,3.196 7.416,2.091 7.096,1.259 6.451,0.7 5.809,0.143 5.047,-0.137 4.168,-0.137 c -0.982,0 -1.738,0.364 -2.27,1.09 L 1.898,0 Z" /></g><g
           transform="translate(120.1643,457.7471)"
           id="g224"><path
             id="path226"
             style="fill:#231f20;fill-opacity:1;fill-rule:nonzero;stroke:none"
             d="M 0,0 C -0.197,0.198 -0.197,0.79 0.074,0.865 0.914,0.815 1.976,0.79 3.186,0.79 c 0.815,0 1.531,0 2.42,0.075 0,-1.532 0.865,-3.038 1.951,-5.36 l 1.63,-3.482 c 0.223,-0.494 0.988,-1.902 1.334,-2.519 0.321,0.592 0.716,1.358 1.383,2.815 l 1.26,2.717 c 1.185,2.544 1.729,3.705 2.272,5.829 1.136,-0.099 1.902,-0.075 2.643,-0.075 0.815,0 1.951,0.025 2.84,0.075 C 21.19,0.716 21.19,0.247 20.993,0 l -0.716,-0.123 c -1.013,-0.173 -1.507,-0.469 -1.507,-1.778 0,-5.088 0.05,-7.756 0.198,-10.868 0.049,-1.136 0.148,-1.728 1.111,-1.852 l 0.791,-0.099 c 0.197,-0.197 0.197,-0.765 -0.05,-0.864 -1.136,0.049 -2.198,0.074 -3.408,0.074 -1.112,0 -2.47,-0.025 -3.655,-0.074 -0.297,0.123 -0.321,0.691 -0.075,0.864 l 0.741,0.099 c 1.136,0.148 1.136,0.445 1.136,1.951 l -0.049,6.422 v 2.815 h -0.049 c -1.828,-3.951 -3.804,-8.076 -5.434,-12.25 -0.123,-0.099 -0.296,-0.173 -0.494,-0.173 -0.222,0 -0.494,0.05 -0.642,0.149 -0.963,3.062 -3.902,9.063 -5.285,12.274 H 3.556 C 3.458,-5.038 3.408,-6.001 3.384,-7.286 c -0.025,-1.605 -0.05,-4.075 -0.05,-5.557 0,-1.235 0.148,-1.58 1.136,-1.728 l 0.963,-0.149 c 0.198,-0.173 0.149,-0.741 -0.049,-0.864 -0.914,0.049 -1.976,0.074 -2.914,0.074 -0.791,0 -1.803,-0.025 -2.791,-0.074 -0.321,0.099 -0.321,0.741 -0.099,0.864 l 0.445,0.074 c 1.259,0.223 1.333,0.371 1.482,1.902 0.123,1.21 0.246,3.359 0.395,5.705 0.099,1.655 0.173,3.656 0.173,4.989 0,1.408 -0.544,1.778 -1.532,1.951 z" /></g><g
           transform="translate(152.8388,448.3622)"
           id="g228"><path
             id="path230"
             style="fill:#231f20;fill-opacity:1;fill-rule:nonzero;stroke:none"
             d="m 0,0 c -1.259,-2.988 -1.926,-4.939 -2.495,-6.323 -0.197,-0.123 -0.493,-0.197 -0.864,-0.197 -0.296,0 -0.518,0.074 -0.667,0.197 -0.271,0.667 -0.691,1.976 -1.037,2.816 L -9.064,6.545 c -0.939,2.371 -1.062,2.42 -1.852,2.618 l -0.988,0.247 c -0.198,0.271 -0.124,0.716 0.099,0.839 1.259,-0.024 2.074,-0.074 3.359,-0.074 1.136,0 2.198,0.025 3.704,0.074 0.198,-0.148 0.173,-0.617 0.025,-0.839 L -5.458,9.262 c -0.445,-0.099 -0.618,-0.247 -0.618,-0.47 0,-0.197 0.396,-1.235 0.988,-2.716 l 2.174,-5.557 c 0.346,-0.914 0.592,-1.482 0.765,-1.902 0.198,0.42 0.494,1.086 0.791,1.828 l 0.914,2.321 c 0.617,1.556 1.654,4.322 1.951,5.162 0.172,0.469 0.246,0.741 0.246,0.889 0,0.173 -0.074,0.272 -0.666,0.42 L 0.371,9.41 c -0.198,0.197 -0.198,0.716 0.098,0.839 1.161,-0.049 2.1,-0.074 3.038,-0.074 0.84,0 1.581,0.025 2.297,0.074 C 6.002,10.151 6.026,9.558 5.853,9.41 L 5.211,9.286 C 4.52,9.163 4.174,8.94 3.853,8.422 3.309,7.607 2.643,6.273 1.803,4.273 Z" /></g><g
           transform="translate(170.9423,458.2905)"
           id="g232"><path
             id="path234"
             style="fill:#231f20;fill-opacity:1;fill-rule:nonzero;stroke:none"
             d="m 0,0 c 0,-0.445 0.074,-2.42 0.296,-3.853 -0.098,-0.296 -0.765,-0.395 -0.938,-0.173 -0.667,2.297 -2.248,3.532 -4.643,3.532 -2.742,0 -5.681,-2.346 -5.681,-7.261 0,-4.915 2.84,-7.557 5.804,-7.557 2.989,0 4.372,2.148 5.039,3.828 0.197,0.197 0.79,0.123 0.938,-0.173 -0.173,-1.828 -0.593,-3.31 -0.938,-3.878 -1.334,-0.37 -3.088,-0.914 -5.014,-0.914 -2.42,0 -4.89,0.568 -6.644,1.878 -1.778,1.358 -3.136,3.408 -3.136,6.47 0,3.013 1.284,5.137 2.988,6.545 1.754,1.457 4.273,2.198 6.842,2.198 C -2.568,0.642 -0.741,0.049 0,0" /></g><g
           transform="translate(187.6626,458.2905)"
           id="g236"><path
             id="path238"
             style="fill:#231f20;fill-opacity:1;fill-rule:nonzero;stroke:none"
             d="m 0,0 c 0,-0.445 0.074,-2.42 0.296,-3.853 -0.098,-0.296 -0.765,-0.395 -0.938,-0.173 -0.667,2.297 -2.248,3.532 -4.643,3.532 -2.742,0 -5.681,-2.346 -5.681,-7.261 0,-4.915 2.84,-7.557 5.804,-7.557 2.989,0 4.371,2.148 5.038,3.828 0.198,0.197 0.791,0.123 0.939,-0.173 -0.173,-1.828 -0.593,-3.31 -0.939,-3.878 -1.333,-0.37 -3.087,-0.914 -5.013,-0.914 -2.42,0 -4.89,0.568 -6.644,1.878 -1.778,1.358 -3.136,3.408 -3.136,6.47 0,3.013 1.284,5.137 2.988,6.545 1.754,1.457 4.273,2.198 6.841,2.198 C -2.569,0.642 -0.741,0.049 0,0" /></g><g
           transform="translate(103.4215,439.034)"
           id="g240"><path
             id="path242"
             style="fill:#231f20;fill-opacity:1;fill-rule:nonzero;stroke:none"
             d="M 0,0 H -0.009 L -0.801,-2.635 H -1.213 L -1.969,0 h -0.009 v -2.635 h -0.526 v 3.16 h 0.865 l 0.652,-2.359 h 0.009 l 0.666,2.359 h 0.837 v -3.16 H 0 Z" /></g></g></g><g
       id="g244"><g
         clip-path="url(#clipPath250)"
         id="g246"><g
           transform="translate(103.4215,439.034)"
           id="g252"><path
             id="path254"
             style="fill:none;stroke:#231f20;stroke-width:0.042;stroke-linecap:butt;stroke-linejoin:miter;stroke-miterlimit:4;stroke-dasharray:none;stroke-opacity:1"
             d="M 0,0 H -0.009 L -0.801,-2.635 H -1.213 L -1.969,0 h -0.009 v -2.635 h -0.526 v 3.16 h 0.865 l 0.652,-2.359 h 0.009 l 0.666,2.359 h 0.837 v -3.16 H 0 Z" /></g></g></g><g
       id="g256"><g
         clip-path="url(#clipPath262)"
         id="g258"><g
           transform="translate(106.097,436.7976)"
           id="g264"><path
             id="path266"
             style="fill:#231f20;fill-opacity:1;fill-rule:nonzero;stroke:none"
             d="M 0,0 C 0.367,0 0.661,0.312 0.661,1.182 0.661,2.051 0.367,2.363 0,2.363 -0.367,2.363 -0.661,2.051 -0.661,1.182 -0.661,0.312 -0.367,0 0,0 m 0,2.807 c 0.657,0 1.259,-0.489 1.259,-1.625 0,-1.137 -0.602,-1.626 -1.259,-1.626 -0.656,0 -1.259,0.489 -1.259,1.626 0,1.136 0.603,1.625 1.259,1.625" /></g></g></g><g
       id="g268"><g
         clip-path="url(#clipPath274)"
         id="g270"><g
           transform="translate(106.097,436.7976)"
           id="g276"><path
             id="path278"
             style="fill:none;stroke:#231f20;stroke-width:0.042;stroke-linecap:butt;stroke-linejoin:miter;stroke-miterlimit:4;stroke-dasharray:none;stroke-opacity:1"
             d="M 0,0 C 0.367,0 0.661,0.312 0.661,1.182 0.661,2.051 0.367,2.363 0,2.363 -0.367,2.363 -0.661,2.051 -0.661,1.182 -0.661,0.312 -0.367,0 0,0 Z m 0,2.807 c 0.657,0 1.259,-0.489 1.259,-1.625 0,-1.137 -0.602,-1.626 -1.259,-1.626 -0.656,0 -1.259,0.489 -1.259,1.626 0,1.136 0.603,1.625 1.259,1.625 z" /></g></g></g><g
       id="g280"><g
         clip-path="url(#clipPath286)"
         id="g282"><g
           transform="translate(108.252,439.5592)"
           id="g288"><path
             id="path290"
             style="fill:#231f20;fill-opacity:1;fill-rule:nonzero;stroke:none"
             d="M 0,0 H 0.579 V -1.286 H 1.517 V 0 H 2.096 V -3.16 H 1.517 v 1.394 H 0.579 V -3.16 H 0 Z" /></g></g></g><g
       id="g292"><g
         clip-path="url(#clipPath298)"
         id="g294"><g
           transform="translate(108.252,439.5592)"
           id="g300"><path
             id="path302"
             style="fill:none;stroke:#231f20;stroke-width:0.042;stroke-linecap:butt;stroke-linejoin:miter;stroke-miterlimit:4;stroke-dasharray:none;stroke-opacity:1"
             d="M 0,0 H 0.579 V -1.286 H 1.517 V 0 H 2.096 V -3.16 H 1.517 v 1.394 H 0.579 V -3.16 H 0 Z" /></g></g></g><g
       id="g304"><g
         clip-path="url(#clipPath310)"
         id="g306"><g
           transform="translate(112.8335,437.6035)"
           id="g312"><path
             id="path314"
             style="fill:#231f20;fill-opacity:1;fill-rule:nonzero;stroke:none"
             d="M 0,0 -0.398,1.476 H -0.407 L -0.842,0 Z m 0.122,-0.444 h -1.086 l -0.227,-0.76 H -1.77 l 1.059,3.16 h 0.634 l 1.019,-3.16 H 0.344 Z" /></g></g></g><g
       id="g316"><g
         clip-path="url(#clipPath322)"
         id="g318"><g
           transform="translate(112.8335,437.6035)"
           id="g324"><path
             id="path326"
             style="fill:none;stroke:#231f20;stroke-width:0.042;stroke-linecap:butt;stroke-linejoin:miter;stroke-miterlimit:4;stroke-dasharray:none;stroke-opacity:1"
             d="M 0,0 -0.398,1.476 H -0.407 L -0.842,0 Z m 0.122,-0.444 h -1.086 l -0.227,-0.76 H -1.77 l 1.059,3.16 h 0.634 l 1.019,-3.16 H 0.344 Z" /></g></g></g><g
       id="g328"><g
         clip-path="url(#clipPath334)"
         id="g330"><g
           transform="translate(115.9353,438.9889)"
           id="g336"><path
             id="path338"
             style="fill:#231f20;fill-opacity:1;fill-rule:nonzero;stroke:none"
             d="m 0,0 h -0.009 l -0.498,-2.59 h -0.684 l -0.638,3.16 h 0.543 l 0.444,-2.435 h 0.009 l 0.475,2.435 h 0.707 l 0.47,-2.435 H 0.828 L 1.29,0.57 H 1.815 L 1.163,-2.59 H 0.471 Z" /></g></g></g><g
       id="g340"><g
         clip-path="url(#clipPath346)"
         id="g342"><g
           transform="translate(115.9353,438.9889)"
           id="g348"><path
             id="path350"
             style="fill:none;stroke:#231f20;stroke-width:0.042;stroke-linecap:butt;stroke-linejoin:miter;stroke-miterlimit:4;stroke-dasharray:none;stroke-opacity:1"
             d="m 0,0 h -0.009 l -0.498,-2.59 h -0.684 l -0.638,3.16 h 0.543 l 0.444,-2.435 h 0.009 l 0.475,2.435 h 0.707 l 0.47,-2.435 H 0.828 L 1.29,0.57 H 1.815 L 1.163,-2.59 H 0.471 Z" /></g></g></g><g
       id="g352"><g
         clip-path="url(#clipPath358)"
         id="g354"><g
           transform="translate(118.502,439.5592)"
           id="g360"><path
             id="path362"
             style="fill:#231f20;fill-opacity:1;fill-rule:nonzero;stroke:none"
             d="M 0,0 H 0.58 V -1.34 H 0.593 L 1.494,0 H 2.16 L 1.087,-1.49 2.246,-3.16 H 1.544 L 0.593,-1.675 H 0.58 V -3.16 H 0 Z" /></g></g></g><g
       id="g364"><g
         clip-path="url(#clipPath370)"
         id="g366"><g
           transform="translate(118.502,439.5592)"
           id="g372"><path
             id="path374"
             style="fill:none;stroke:#231f20;stroke-width:0.042;stroke-linecap:butt;stroke-linejoin:miter;stroke-miterlimit:4;stroke-dasharray:none;stroke-opacity:1"
             d="M 0,0 H 0.58 V -1.34 H 0.593 L 1.494,0 H 2.16 L 1.087,-1.49 2.246,-3.16 H 1.544 L 0.593,-1.675 H 0.58 V -3.16 H 0 Z" /></g></g></g><g
       id="g376"><g
         clip-path="url(#clipPath382)"
         id="g378"><g
           transform="translate(122.6853,439.5592)"
           id="g384"><path
             id="path386"
             style="fill:#231f20;fill-opacity:1;fill-rule:nonzero;stroke:none"
             d="M 0,0 H 0.625 L 1.263,-2.436 H 1.272 L 1.928,0 H 2.526 L 1.562,-3.16 H 0.95 Z" /></g></g></g><g
       id="g388"><g
         clip-path="url(#clipPath394)"
         id="g390"><g
           transform="translate(122.6853,439.5592)"
           id="g396"><path
             id="path398"
             style="fill:none;stroke:#231f20;stroke-width:0.042;stroke-linecap:butt;stroke-linejoin:miter;stroke-miterlimit:4;stroke-dasharray:none;stroke-opacity:1"
             d="M 0,0 H 0.625 L 1.263,-2.436 H 1.272 L 1.928,0 H 2.526 L 1.562,-3.16 H 0.95 Z" /></g></g></g><g
       id="g400"><g
         clip-path="url(#clipPath406)"
         id="g402"><g
           transform="translate(127.1726,437.6035)"
           id="g408"><path
             id="path410"
             style="fill:#231f20;fill-opacity:1;fill-rule:nonzero;stroke:none"
             d="M 0,0 -0.398,1.476 H -0.407 L -0.842,0 Z m 0.122,-0.444 h -1.086 l -0.227,-0.76 H -1.77 l 1.059,3.16 h 0.634 l 1.019,-3.16 H 0.344 Z" /></g></g></g><g
       id="g412"><g
         clip-path="url(#clipPath418)"
         id="g414"><g
           transform="translate(127.1726,437.6035)"
           id="g420"><path
             id="path422"
             style="fill:none;stroke:#231f20;stroke-width:0.042;stroke-linecap:butt;stroke-linejoin:miter;stroke-miterlimit:4;stroke-dasharray:none;stroke-opacity:1"
             d="M 0,0 -0.398,1.476 H -0.407 L -0.842,0 Z m 0.122,-0.444 h -1.086 l -0.227,-0.76 H -1.77 l 1.059,3.16 h 0.634 l 1.019,-3.16 H 0.344 Z" /></g></g></g><g
       id="g424"><g
         clip-path="url(#clipPath430)"
         id="g426"><g
           transform="translate(128.8022,439.5592)"
           id="g432"><path
             id="path434"
             style="fill:#231f20;fill-opacity:1;fill-rule:nonzero;stroke:none"
             d="M 0,0 H 0.58 V -2.698 H 1.621 V -3.16 H 0 Z" /></g></g></g><g
       id="g436"><g
         clip-path="url(#clipPath442)"
         id="g438"><g
           transform="translate(128.8022,439.5592)"
           id="g444"><path
             id="path446"
             style="fill:none;stroke:#231f20;stroke-width:0.042;stroke-linecap:butt;stroke-linejoin:miter;stroke-miterlimit:4;stroke-dasharray:none;stroke-opacity:1"
             d="M 0,0 H 0.58 V -2.698 H 1.621 V -3.16 H 0 Z" /></g></g></g><g
       id="g448"><g
         clip-path="url(#clipPath454)"
         id="g450"><g
           transform="translate(131.1654,439.5592)"
           id="g456"><path
             id="path458"
             style="fill:#231f20;fill-opacity:1;fill-rule:nonzero;stroke:none"
             d="M 0,0 H 0.58 V -2.698 H 1.621 V -3.16 H 0 Z" /></g></g></g><g
       id="g460"><g
         clip-path="url(#clipPath466)"
         id="g462"><g
           transform="translate(131.1654,439.5592)"
           id="g468"><path
             id="path470"
             style="fill:none;stroke:#231f20;stroke-width:0.042;stroke-linecap:butt;stroke-linejoin:miter;stroke-miterlimit:4;stroke-dasharray:none;stroke-opacity:1"
             d="M 0,0 H 0.58 V -2.698 H 1.621 V -3.16 H 0 Z" /></g></g></g><g
       id="g472"><g
         clip-path="url(#clipPath478)"
         id="g474"><g
           transform="translate(133.5556,439.5592)"
           id="g480"><path
             id="path482"
             style="fill:#231f20;fill-opacity:1;fill-rule:nonzero;stroke:none"
             d="M 0,0 H 1.662 V -0.462 H 0.58 V -1.304 H 1.603 V -1.766 H 0.58 V -2.698 H 1.707 V -3.16 H 0 Z" /></g></g></g><g
       id="g484"><g
         clip-path="url(#clipPath490)"
         id="g486"><g
           transform="translate(133.5556,439.5592)"
           id="g492"><path
             id="path494"
             style="fill:none;stroke:#231f20;stroke-width:0.042;stroke-linecap:butt;stroke-linejoin:miter;stroke-miterlimit:4;stroke-dasharray:none;stroke-opacity:1"
             d="M 0,0 H 1.662 V -0.462 H 0.58 V -1.304 H 1.603 V -1.766 H 0.58 V -2.698 H 1.707 V -3.16 H 0 Z" /></g></g></g><g
       id="g496"><g
         clip-path="url(#clipPath502)"
         id="g498"><g
           transform="translate(136.8063,437.6668)"
           id="g504"><path
             id="path506"
             style="fill:#231f20;fill-opacity:1;fill-rule:nonzero;stroke:none"
             d="m 0,0 -0.933,1.892 h 0.625 L 0.308,0.629 0.887,1.892 H 1.512 L 0.58,-0.014 V -1.268 H 0 Z" /></g></g></g><g
       id="g508"><g
         clip-path="url(#clipPath514)"
         id="g510"><g
           transform="translate(136.8063,437.6668)"
           id="g516"><path
             id="path518"
             style="fill:none;stroke:#231f20;stroke-width:0.042;stroke-linecap:butt;stroke-linejoin:miter;stroke-miterlimit:4;stroke-dasharray:none;stroke-opacity:1"
             d="m 0,0 -0.933,1.892 h 0.625 L 0.308,0.629 0.887,1.892 H 1.512 L 0.58,-0.014 V -1.268 H 0 Z" /></g></g></g><g
       id="g520"><g
         clip-path="url(#clipPath526)"
         id="g522"><g
           transform="translate(142.583,436.4671)"
           id="g528"><path
             id="path530"
             style="fill:#231f20;fill-opacity:1;fill-rule:nonzero;stroke:none"
             d="m 0,0 c -0.118,-0.063 -0.398,-0.113 -0.683,-0.113 -0.96,0 -1.454,0.701 -1.454,1.625 0,0.924 0.494,1.626 1.435,1.626 0.322,0 0.584,-0.087 0.702,-0.132 l -0.032,-0.52 c -0.117,0.058 -0.303,0.172 -0.597,0.172 -0.48,0 -0.892,-0.326 -0.892,-1.146 0,-0.819 0.412,-1.145 0.892,-1.145 0.28,0 0.466,0.068 0.597,0.163 z" /></g></g></g><g
       id="g532"><g
         clip-path="url(#clipPath538)"
         id="g534"><g
           transform="translate(142.583,436.4671)"
           id="g540"><path
             id="path542"
             style="fill:none;stroke:#231f20;stroke-width:0.042;stroke-linecap:butt;stroke-linejoin:miter;stroke-miterlimit:4;stroke-dasharray:none;stroke-opacity:1"
             d="m 0,0 c -0.118,-0.063 -0.398,-0.113 -0.683,-0.113 -0.96,0 -1.454,0.701 -1.454,1.625 0,0.924 0.494,1.626 1.435,1.626 0.322,0 0.584,-0.087 0.702,-0.132 l -0.032,-0.52 c -0.117,0.058 -0.303,0.172 -0.597,0.172 -0.48,0 -0.892,-0.326 -0.892,-1.146 0,-0.819 0.412,-1.145 0.892,-1.145 0.28,0 0.466,0.068 0.597,0.163 z" /></g></g></g><g
       id="g544"><g
         clip-path="url(#clipPath550)"
         id="g546"><g
           transform="translate(144.575,436.7976)"
           id="g552"><path
             id="path554"
             style="fill:#231f20;fill-opacity:1;fill-rule:nonzero;stroke:none"
             d="M 0,0 C 0.367,0 0.661,0.312 0.661,1.182 0.661,2.051 0.367,2.363 0,2.363 -0.367,2.363 -0.661,2.051 -0.661,1.182 -0.661,0.312 -0.367,0 0,0 m 0,2.807 c 0.657,0 1.259,-0.489 1.259,-1.625 0,-1.137 -0.602,-1.626 -1.259,-1.626 -0.657,0 -1.259,0.489 -1.259,1.626 0,1.136 0.602,1.625 1.259,1.625" /></g></g></g><g
       id="g556"><g
         clip-path="url(#clipPath562)"
         id="g558"><g
           transform="translate(144.575,436.7976)"
           id="g564"><path
             id="path566"
             style="fill:none;stroke:#231f20;stroke-width:0.042;stroke-linecap:butt;stroke-linejoin:miter;stroke-miterlimit:4;stroke-dasharray:none;stroke-opacity:1"
             d="M 0,0 C 0.367,0 0.661,0.312 0.661,1.182 0.661,2.051 0.367,2.363 0,2.363 -0.367,2.363 -0.661,2.051 -0.661,1.182 -0.661,0.312 -0.367,0 0,0 Z m 0,2.807 c 0.657,0 1.259,-0.489 1.259,-1.625 0,-1.137 -0.602,-1.626 -1.259,-1.626 -0.657,0 -1.259,0.489 -1.259,1.626 0,1.136 0.602,1.625 1.259,1.625 z" /></g></g></g><g
       id="g568"><g
         clip-path="url(#clipPath574)"
         id="g570"><g
           transform="translate(149.2292,439.034)"
           id="g576"><path
             id="path578"
             style="fill:#231f20;fill-opacity:1;fill-rule:nonzero;stroke:none"
             d="M 0,0 H -0.009 L -0.801,-2.635 H -1.214 L -1.97,0 h -0.009 v -2.635 h -0.525 v 3.16 h 0.865 l 0.652,-2.359 h 0.009 l 0.666,2.359 h 0.837 v -3.16 H 0 Z" /></g></g></g><g
       id="g580"><g
         clip-path="url(#clipPath586)"
         id="g582"><g
           transform="translate(149.2292,439.034)"
           id="g588"><path
             id="path590"
             style="fill:none;stroke:#231f20;stroke-width:0.042;stroke-linecap:butt;stroke-linejoin:miter;stroke-miterlimit:4;stroke-dasharray:none;stroke-opacity:1"
             d="M 0,0 H -0.009 L -0.801,-2.635 H -1.214 L -1.97,0 h -0.009 v -2.635 h -0.525 v 3.16 h 0.865 l 0.652,-2.359 h 0.009 l 0.666,2.359 h 0.837 v -3.16 H 0 Z" /></g></g></g><g
       id="g592"><g
         clip-path="url(#clipPath598)"
         id="g594"><g
           transform="translate(153.2719,439.034)"
           id="g600"><path
             id="path602"
             style="fill:#231f20;fill-opacity:1;fill-rule:nonzero;stroke:none"
             d="M 0,0 H -0.009 L -0.801,-2.635 H -1.213 L -1.969,0 h -0.009 v -2.635 h -0.526 v 3.16 h 0.865 l 0.652,-2.359 h 0.009 l 0.666,2.359 h 0.837 v -3.16 H 0 Z" /></g></g></g><g
       id="g604"><g
         clip-path="url(#clipPath610)"
         id="g606"><g
           transform="translate(153.2719,439.034)"
           id="g612"><path
             id="path614"
             style="fill:none;stroke:#231f20;stroke-width:0.042;stroke-linecap:butt;stroke-linejoin:miter;stroke-miterlimit:4;stroke-dasharray:none;stroke-opacity:1"
             d="M 0,0 H -0.009 L -0.801,-2.635 H -1.213 L -1.969,0 h -0.009 v -2.635 h -0.526 v 3.16 h 0.865 l 0.652,-2.359 h 0.009 l 0.666,2.359 h 0.837 v -3.16 H 0 Z" /></g></g></g><g
       id="g616"><g
         clip-path="url(#clipPath622)"
         id="g618"><g
           transform="translate(155.3679,439.5592)"
           id="g624"><path
             id="path626"
             style="fill:#231f20;fill-opacity:1;fill-rule:nonzero;stroke:none"
             d="m 0,0 v -2.046 c 0,-0.526 0.158,-0.698 0.498,-0.698 0.33,0 0.494,0.172 0.494,0.698 V 0 h 0.579 v -2.046 c 0,-0.833 -0.48,-1.159 -1.073,-1.159 -0.598,0 -1.078,0.326 -1.078,1.159 V 0 Z" /></g></g></g><g
       id="g628"><g
         clip-path="url(#clipPath634)"
         id="g630"><g
           transform="translate(155.3679,439.5592)"
           id="g636"><path
             id="path638"
             style="fill:none;stroke:#231f20;stroke-width:0.042;stroke-linecap:butt;stroke-linejoin:miter;stroke-miterlimit:4;stroke-dasharray:none;stroke-opacity:1"
             d="m 0,0 v -2.046 c 0,-0.526 0.158,-0.698 0.498,-0.698 0.33,0 0.494,0.172 0.494,0.698 V 0 h 0.579 v -2.046 c 0,-0.833 -0.48,-1.159 -1.073,-1.159 -0.598,0 -1.078,0.326 -1.078,1.159 V 0 Z" /></g></g></g><g
       id="g640"><g
         clip-path="url(#clipPath646)"
         id="g642"><g
           transform="translate(157.9303,439.5592)"
           id="g648"><path
             id="path650"
             style="fill:#231f20;fill-opacity:1;fill-rule:nonzero;stroke:none"
             d="m 0,0 h 0.688 l 1.05,-2.481 H 1.747 V 0 H 2.273 V -3.16 H 1.58 L 0.534,-0.697 H 0.525 V -3.16 H 0 Z" /></g></g></g><g
       id="g652"><g
         clip-path="url(#clipPath658)"
         id="g654"><g
           transform="translate(157.9303,439.5592)"
           id="g660"><path
             id="path662"
             style="fill:none;stroke:#231f20;stroke-width:0.042;stroke-linecap:butt;stroke-linejoin:miter;stroke-miterlimit:4;stroke-dasharray:none;stroke-opacity:1"
             d="m 0,0 h 0.688 l 1.05,-2.481 H 1.747 V 0 H 2.273 V -3.16 H 1.58 L 0.534,-0.697 H 0.525 V -3.16 H 0 Z" /></g></g></g><g
       id="g664"><g
         clip-path="url(#clipPath670)"
         id="g666"><path
           id="path672"
           style="fill:#231f20;fill-opacity:1;fill-rule:nonzero;stroke:none"
           d="m 161.226,439.559 h 0.579 v -3.16 h -0.579 z" /></g></g><g
       id="g674"><g
         clip-path="url(#clipPath680)"
         id="g676"><path
           id="path682"
           style="fill:none;stroke:#231f20;stroke-width:0.042;stroke-linecap:butt;stroke-linejoin:miter;stroke-miterlimit:4;stroke-dasharray:none;stroke-opacity:1"
           d="m 161.226,439.559 h 0.579 v -3.16 h -0.579 z" /></g></g><g
       id="g684"><g
         clip-path="url(#clipPath690)"
         id="g686"><g
           transform="translate(163.2995,439.0973)"
           id="g692"><path
             id="path694"
             style="fill:#231f20;fill-opacity:1;fill-rule:nonzero;stroke:none"
             d="M 0,0 H -0.706 V 0.462 H 1.281 V 0 H 0.579 V -2.698 H 0 Z" /></g></g></g><g
       id="g696"><g
         clip-path="url(#clipPath702)"
         id="g698"><g
           transform="translate(163.2995,439.0973)"
           id="g704"><path
             id="path706"
             style="fill:none;stroke:#231f20;stroke-width:0.042;stroke-linecap:butt;stroke-linejoin:miter;stroke-miterlimit:4;stroke-dasharray:none;stroke-opacity:1"
             d="M 0,0 H -0.706 V 0.462 H 1.281 V 0 H 0.579 V -2.698 H 0 Z" /></g></g></g><g
       id="g708"><g
         clip-path="url(#clipPath714)"
         id="g710"><g
           transform="translate(165.9978,437.6668)"
           id="g716"><path
             id="path718"
             style="fill:#231f20;fill-opacity:1;fill-rule:nonzero;stroke:none"
             d="m 0,0 -0.933,1.892 h 0.625 L 0.308,0.629 0.887,1.892 H 1.512 L 0.579,-0.014 V -1.268 H 0 Z" /></g></g></g><g
       id="g720"><g
         clip-path="url(#clipPath726)"
         id="g722"><g
           transform="translate(165.9978,437.6668)"
           id="g728"><path
             id="path730"
             style="fill:none;stroke:#231f20;stroke-width:0.042;stroke-linecap:butt;stroke-linejoin:miter;stroke-miterlimit:4;stroke-dasharray:none;stroke-opacity:1"
             d="m 0,0 -0.933,1.892 h 0.625 L 0.308,0.629 0.887,1.892 H 1.512 L 0.579,-0.014 V -1.268 H 0 Z" /></g></g></g><g
       id="g732"><g
         clip-path="url(#clipPath738)"
         id="g734"><g
           transform="translate(171.7744,436.4671)"
           id="g740"><path
             id="path742"
             style="fill:#231f20;fill-opacity:1;fill-rule:nonzero;stroke:none"
             d="m 0,0 c -0.118,-0.063 -0.399,-0.113 -0.684,-0.113 -0.959,0 -1.453,0.701 -1.453,1.625 0,0.924 0.494,1.626 1.435,1.626 0.322,0 0.584,-0.087 0.702,-0.132 l -0.032,-0.52 c -0.117,0.058 -0.303,0.172 -0.597,0.172 -0.48,0 -0.892,-0.326 -0.892,-1.146 0,-0.819 0.412,-1.145 0.892,-1.145 0.28,0 0.466,0.068 0.597,0.163 z" /></g></g></g><g
       id="g744"><g
         clip-path="url(#clipPath750)"
         id="g746"><g
           transform="translate(171.7744,436.4671)"
           id="g752"><path
             id="path754"
             style="fill:none;stroke:#231f20;stroke-width:0.042;stroke-linecap:butt;stroke-linejoin:miter;stroke-miterlimit:4;stroke-dasharray:none;stroke-opacity:1"
             d="m 0,0 c -0.118,-0.063 -0.399,-0.113 -0.684,-0.113 -0.959,0 -1.453,0.701 -1.453,1.625 0,0.924 0.494,1.626 1.435,1.626 0.322,0 0.584,-0.087 0.702,-0.132 l -0.032,-0.52 c -0.117,0.058 -0.303,0.172 -0.597,0.172 -0.48,0 -0.892,-0.326 -0.892,-1.146 0,-0.819 0.412,-1.145 0.892,-1.145 0.28,0 0.466,0.068 0.597,0.163 z" /></g></g></g><g
       id="g756"><g
         clip-path="url(#clipPath762)"
         id="g758"><g
           transform="translate(173.7666,436.7976)"
           id="g764"><path
             id="path766"
             style="fill:#231f20;fill-opacity:1;fill-rule:nonzero;stroke:none"
             d="M 0,0 C 0.367,0 0.661,0.312 0.661,1.182 0.661,2.051 0.367,2.363 0,2.363 -0.367,2.363 -0.661,2.051 -0.661,1.182 -0.661,0.312 -0.367,0 0,0 m 0,2.807 c 0.657,0 1.259,-0.489 1.259,-1.625 0,-1.137 -0.602,-1.626 -1.259,-1.626 -0.657,0 -1.259,0.489 -1.259,1.626 0,1.136 0.602,1.625 1.259,1.625" /></g></g></g><g
       id="g768"><g
         clip-path="url(#clipPath774)"
         id="g770"><g
           transform="translate(173.7666,436.7976)"
           id="g776"><path
             id="path778"
             style="fill:none;stroke:#231f20;stroke-width:0.042;stroke-linecap:butt;stroke-linejoin:miter;stroke-miterlimit:4;stroke-dasharray:none;stroke-opacity:1"
             d="M 0,0 C 0.367,0 0.661,0.312 0.661,1.182 0.661,2.051 0.367,2.363 0,2.363 -0.367,2.363 -0.661,2.051 -0.661,1.182 -0.661,0.312 -0.367,0 0,0 Z m 0,2.807 c 0.657,0 1.259,-0.489 1.259,-1.625 0,-1.137 -0.602,-1.626 -1.259,-1.626 -0.657,0 -1.259,0.489 -1.259,1.626 0,1.136 0.602,1.625 1.259,1.625 z" /></g></g></g><g
       id="g780"><g
         clip-path="url(#clipPath786)"
         id="g782"><g
           transform="translate(175.8942,439.5592)"
           id="g788"><path
             id="path790"
             style="fill:#231f20;fill-opacity:1;fill-rule:nonzero;stroke:none"
             d="M 0,0 H 0.58 V -2.698 H 1.621 V -3.16 H 0 Z" /></g></g></g><g
       id="g792"><g
         clip-path="url(#clipPath798)"
         id="g794"><g
           transform="translate(175.8942,439.5592)"
           id="g800"><path
             id="path802"
             style="fill:none;stroke:#231f20;stroke-width:0.042;stroke-linecap:butt;stroke-linejoin:miter;stroke-miterlimit:4;stroke-dasharray:none;stroke-opacity:1"
             d="M 0,0 H 0.58 V -2.698 H 1.621 V -3.16 H 0 Z" /></g></g></g><g
       id="g804"><g
         clip-path="url(#clipPath810)"
         id="g806"><g
           transform="translate(178.2572,439.5592)"
           id="g812"><path
             id="path814"
             style="fill:#231f20;fill-opacity:1;fill-rule:nonzero;stroke:none"
             d="M 0,0 H 0.58 V -2.698 H 1.621 V -3.16 H 0 Z" /></g></g></g><g
       id="g816"><g
         clip-path="url(#clipPath822)"
         id="g818"><g
           transform="translate(178.2572,439.5592)"
           id="g824"><path
             id="path826"
             style="fill:none;stroke:#231f20;stroke-width:0.042;stroke-linecap:butt;stroke-linejoin:miter;stroke-miterlimit:4;stroke-dasharray:none;stroke-opacity:1"
             d="M 0,0 H 0.58 V -2.698 H 1.621 V -3.16 H 0 Z" /></g></g></g><g
       id="g828"><g
         clip-path="url(#clipPath834)"
         id="g830"><g
           transform="translate(180.6478,439.5592)"
           id="g836"><path
             id="path838"
             style="fill:#231f20;fill-opacity:1;fill-rule:nonzero;stroke:none"
             d="M 0,0 H 1.661 V -0.462 H 0.579 V -1.304 H 1.602 V -1.766 H 0.579 V -2.698 H 1.707 V -3.16 H 0 Z" /></g></g></g><g
       id="g840"><g
         clip-path="url(#clipPath846)"
         id="g842"><g
           transform="translate(180.6478,439.5592)"
           id="g848"><path
             id="path850"
             style="fill:none;stroke:#231f20;stroke-width:0.042;stroke-linecap:butt;stroke-linejoin:miter;stroke-miterlimit:4;stroke-dasharray:none;stroke-opacity:1"
             d="M 0,0 H 1.661 V -0.462 H 0.579 V -1.304 H 1.602 V -1.766 H 0.579 V -2.698 H 1.707 V -3.16 H 0 Z" /></g></g></g><g
       id="g852"><g
         clip-path="url(#clipPath858)"
         id="g854"><g
           transform="translate(184.5231,438.1693)"
           id="g860"><path
             id="path862"
             style="fill:#231f20;fill-opacity:1;fill-rule:nonzero;stroke:none"
             d="M 0,0 H 1.023 V -1.652 C 0.86,-1.739 0.58,-1.815 0.167,-1.815 c -1.014,0 -1.552,0.688 -1.552,1.625 0,0.937 0.538,1.625 1.552,1.625 0.363,0 0.648,-0.081 0.77,-0.136 L 0.905,0.779 C 0.72,0.892 0.466,0.973 0.176,0.973 c -0.615,0 -0.946,-0.507 -0.946,-1.163 0,-0.711 0.322,-1.164 0.915,-1.164 0.136,0 0.258,0.027 0.335,0.059 v 0.852 H 0 Z" /></g></g></g><g
       id="g864"><g
         clip-path="url(#clipPath870)"
         id="g866"><g
           transform="translate(184.5231,438.1693)"
           id="g872"><path
             id="path874"
             style="fill:none;stroke:#231f20;stroke-width:0.042;stroke-linecap:butt;stroke-linejoin:miter;stroke-miterlimit:4;stroke-dasharray:none;stroke-opacity:1"
             d="M 0,0 H 1.023 V -1.652 C 0.86,-1.739 0.58,-1.815 0.167,-1.815 c -1.014,0 -1.552,0.688 -1.552,1.625 0,0.937 0.538,1.625 1.552,1.625 0.363,0 0.648,-0.081 0.77,-0.136 L 0.905,0.779 C 0.72,0.892 0.466,0.973 0.176,0.973 c -0.615,0 -0.946,-0.507 -0.946,-1.163 0,-0.711 0.322,-1.164 0.915,-1.164 0.136,0 0.258,0.027 0.335,0.059 v 0.852 H 0 Z" /></g></g></g><g
       id="g876"><g
         clip-path="url(#clipPath882)"
         id="g878"><g
           transform="translate(186.5512,439.5592)"
           id="g884"><path
             id="path886"
             style="fill:#231f20;fill-opacity:1;fill-rule:nonzero;stroke:none"
             d="M 0,0 H 1.662 V -0.462 H 0.579 V -1.304 H 1.603 V -1.766 H 0.579 V -2.698 H 1.707 V -3.16 H 0 Z" /></g></g></g><g
       id="g888"><g
         clip-path="url(#clipPath894)"
         id="g890"><g
           transform="translate(186.5512,439.5592)"
           id="g896"><path
             id="path898"
             style="fill:none;stroke:#231f20;stroke-width:0.042;stroke-linecap:butt;stroke-linejoin:miter;stroke-miterlimit:4;stroke-dasharray:none;stroke-opacity:1"
             d="M 0,0 H 1.662 V -0.462 H 0.579 V -1.304 H 1.603 V -1.766 H 0.579 V -2.698 H 1.707 V -3.16 H 0 Z" /></g></g></g><g
       id="g900"><g
         clip-path="url(#clipPath906)"
         id="g902"><path
           id="path908"
           style="fill:#00703c;fill-opacity:1;fill-rule:nonzero;stroke:none"
           d="M 117.573,442.25 H 100.91 v 16.442 h 16.663 z" /><g
           transform="translate(104.2289,456.4095)"
           id="g910"><path
             id="path912"
             style="fill:#ffffff;fill-opacity:1;fill-rule:nonzero;stroke:none"
             d="M 0,0 C 0,0 2.543,-1.558 2.543,-5.152 2.543,-8.598 0,-10.203 0,-10.203 c 0,0 -2.396,1.374 -2.396,5.177 C -2.396,-1.222 0,0 0,0" /></g><g
           transform="translate(114.9767,445.6909)"
           id="g914"><path
             id="path916"
             style="fill:#ffffff;fill-opacity:1;fill-rule:nonzero;stroke:none"
             d="m 0,0 c 0,0 -1.558,-2.543 -5.152,-2.543 -3.446,0 -5.051,2.543 -5.051,2.543 0,0 1.374,2.396 5.177,2.396 C -1.222,2.396 0,0 0,0" /></g><g
           transform="translate(107.3042,448.6409)"
           id="g918"><path
             id="path920"
             style="fill:#ffffff;fill-opacity:1;fill-rule:nonzero;stroke:none"
             d="m 0,0 c 0,0 -0.696,2.9 1.845,5.441 2.437,2.437 5.369,1.773 5.369,1.773 0,0 0.723,-2.665 -1.966,-5.354 C 2.558,-0.83 0,0 0,0" /></g></g></g></g></svg>